<?xml version="1.0" encoding="iso-8859-1"?>
<!-- Generator: Adobe Illustrator 19.0.0, SVG Export Plug-In . SVG Version: 6.00 Build 0)  -->
<svg version="1.1" id="Layer_1" xmlns="http://www.w3.org/2000/svg" xmlns:xlink="http://www.w3.org/1999/xlink" x="0px" y="0px"
	 viewBox="0 0 511.984 511.984" style="enable-background:new 0 0 511.984 511.984;" xml:space="preserve">
<path style="fill:#1a8008;" d="M0,234.657c0,129.597,105.059,234.657,234.665,234.657c129.59,0,234.648-105.061,234.648-234.657
	C469.313,105.058,364.254,0,234.665,0C105.058,0,0,105.058,0,234.657z"/>
<path d="M332.083,424.737c2.953,5.093,9.469,6.843,14.578,3.905c5.094-2.937,6.844-9.468,3.906-14.577
	c-2.953-5.108-9.469-6.843-14.578-3.89C330.88,413.112,329.145,419.643,332.083,424.737z"/>
<path d="M414.065,350.552c5.109,2.953,11.625,1.203,14.578-3.906c2.953-5.094,1.203-11.624-3.906-14.562
	c-5.094-2.938-11.625-1.203-14.562,3.906C407.221,341.083,408.971,347.614,414.065,350.552z"/>
<g>
	<path style="fill:#DA4453;" d="M234.665,10.663c-5.891,0-10.672,4.773-10.672,10.664s4.781,10.664,10.672,10.664
		c5.89,0,10.655-4.773,10.655-10.664S240.554,10.663,234.665,10.663z"/>
	<path style="fill:#DA4453;" d="M234.665,437.314c-5.891,0-10.672,4.766-10.672,10.672c0,5.891,4.781,10.656,10.672,10.656
		c5.89,0,10.655-4.766,10.655-10.656C245.32,442.08,240.554,437.314,234.665,437.314z"/>
	<path style="fill:#DA4453;" d="M122.668,40.67c-5.109,2.945-6.859,9.469-3.906,14.57c2.938,5.102,9.469,6.852,14.562,3.906
		c5.108-2.945,6.858-9.469,3.905-14.57C134.293,39.474,127.762,37.724,122.668,40.67z"/>
	<path style="fill:#DA4453;" d="M55.248,118.754c-5.109-2.945-11.625-1.195-14.578,3.906c-2.938,5.102-1.188,11.625,3.906,14.569
		c5.109,2.945,11.625,1.195,14.578-3.905C62.092,128.222,60.342,121.699,55.248,118.754z"/>
	<path style="fill:#DA4453;" d="M21.327,223.993c-5.891-0.008-10.656,4.773-10.656,10.664c0,5.89,4.766,10.663,10.656,10.663
		s10.672-4.773,10.672-10.663C31.999,228.766,27.218,223.985,21.327,223.993z"/>
	<path style="fill:#DA4453;" d="M447.986,223.993c-5.891-0.008-10.671,4.773-10.671,10.664c0,5.89,4.78,10.663,10.671,10.663
		s10.671-4.773,10.671-10.663C458.657,228.766,453.877,223.985,447.986,223.993z"/>
	<path style="fill:#DA4453;" d="M44.576,332.084c-5.094,2.938-6.844,9.468-3.906,14.562c2.953,5.109,9.469,6.859,14.578,3.906
		c5.094-2.938,6.844-9.469,3.906-14.562C56.201,330.881,49.685,329.146,44.576,332.084z"/>
	<path style="fill:#DA4453;" d="M414.065,118.754c-5.094,2.945-6.844,9.469-3.891,14.57c2.938,5.101,9.469,6.851,14.562,3.905
		c5.109-2.944,6.859-9.468,3.906-14.569C425.706,117.558,419.175,115.808,414.065,118.754z"/>
	<path style="fill:#DA4453;" d="M133.324,410.176c-5.094-2.953-11.625-1.203-14.562,3.905c-2.953,5.094-1.203,11.625,3.906,14.562
		c5.094,2.938,11.625,1.188,14.562-3.905C140.182,419.643,138.432,413.112,133.324,410.176z"/>
	<path style="fill:#DA4453;" d="M346.661,40.67c-5.109-2.945-11.625-1.195-14.578,3.906c-2.938,5.102-1.188,11.625,3.906,14.57
		c5.109,2.945,11.625,1.195,14.578-3.906C353.505,50.138,351.755,43.615,346.661,40.67z"/>
</g>
<g>
	<path style="fill:#434A54;" d="M245.32,74.669v-0.008c0-5.89-4.766-10.671-10.655-10.671c-5.891,0-10.672,4.781-10.672,10.671l0,0
		v155.574L113.98,340.239l0,0c-4.156,4.172-4.156,10.938,0,15.094c4.172,4.156,10.922,4.156,15.094,0l0,0l113.121-113.138
		l-7.53-7.538h10.655V74.669z"/>
	<path style="fill:#434A54;" d="M242.195,242.195c4.172-4.163,4.172-10.913,0-15.085c-4.156-4.164-10.905-4.164-15.077,0
		c-4.172,4.172-4.172,10.922,0,15.085C231.29,246.367,238.039,246.367,242.195,242.195z"/>
</g>
<path style="fill:#fbbd14;" d="M511.984,383.988c0,70.686-57.311,127.996-127.996,127.996s-127.996-57.31-127.996-127.996
	s57.311-127.996,127.996-127.996S511.984,313.303,511.984,383.988z"/>
<g>
	<path style="fill:#434A54;" d="M383.082,430.705h-67.998c0.391-21.467,11.796-29.561,28.499-40.811
		c8.219-5.578,20.016-11.547,20.016-22.938c0-8.093-5.312-13.39-13.266-13.39c-9.797,0-14.578,6.484-15.109,20.14h-18.03v-1.984
		c0-21.077,13.124-34.451,33.812-34.451c18.688,0,31.546,11.53,31.546,28.357c0,14.984-8.219,21.609-19.218,29.156
		c-7.953,5.438-18.828,11.672-24.125,19.608h43.874L383.082,430.705L383.082,430.705z"/>
	<path style="fill:#434A54;" d="M458.235,409.363h-12.468v21.342h-17.499v-21.342h-39.766v-17.359l40.297-54.342h16.968v56.076
		h12.468V409.363z M428.268,359.27l-24.641,34.468h24.641V359.27z"/>
</g>
<g>
</g>
<g>
</g>
<g>
</g>
<g>
</g>
<g>
</g>
<g>
</g>
<g>
</g>
<g>
</g>
<g>
</g>
<g>
</g>
<g>
</g>
<g>
</g>
<g>
</g>
<g>
</g>
<g>
</g>
</svg>
