<svg xmlns="http://www.w3.org/2000/svg" version="1.1" xmlns:xlink="http://www.w3.org/1999/xlink" width="35" height="35" x="0" y="0" viewBox="0 0 682.667 682.667" style="enable-background:new 0 0 512 512" xml:space="preserve" class="">
	<g>
		<defs>
			<clipPath id="a" clipPathUnits="userSpaceOnUse">
				<path d="M0 512h512V0H0Z" fill="#000000" opacity="1" data-original="#000000"></path>
			</clipPath>
		</defs>
		<g clip-path="url(#a)" transform="matrix(1.33333 0 0 -1.33333 0 682.667)">
			<path d="M0 0h-422.385c-13.806 0-25 11.193-25 25v398.05c0 13.806 11.194 25 25 25H0c13.808 0 25-11.194 25-25V25C25 11.193 13.808 0 0 0" style="fill-opacity:1;fill-rule:nonzero;stroke:none" transform="translate(462.192 7.5)" fill="#f4fdff" data-original="#f4fdff" class=""></path>
			<path d="M0 0h-30C-16.193 0-5-11.193-5-25v-398.05c0-13.806-11.193-25-25-25H0c13.807 0 25 11.194 25 25V-25C25-11.193 13.807 0 0 0" style="fill-opacity:1;fill-rule:nonzero;stroke:none" transform="translate(472.192 455.55)" fill="#e6e6e6" data-original="#e6e6e6" class=""></path>
			<path d="M0 0h-13.853l-23.726-10-23.726 10h-101.161l-23.726-10-23.726 10H-311.08l-23.726-10-23.726 10h-63.853c-13.806 0-25-11.193-25-25v-82.802H25V-25C25-11.193 13.807 0 0 0" style="fill-opacity:1;fill-rule:nonzero;stroke:none" transform="translate(462.192 455.55)" fill="#1a8008" data-original="#ed6479" class="" opacity="1"></path>
			<path d="M0 0h-30C-16.193 0-5-11.193-5-25v-82.802h30V-25C25-11.193 13.807 0 0 0" style="fill-opacity:1;fill-rule:nonzero;stroke:none" transform="translate(472.192 455.55)" fill="#1b4d32" data-original="#d65461" class="" opacity="1"></path>
			<path d="M0 0h.001c13.103 0 23.726 10.622 23.726 23.726V48.95h-47.453V23.726C-23.726 10.622-13.103 0 0 0" style="fill-opacity:1;fill-rule:nonzero;stroke:none" transform="translate(424.613 406.6)" fill="#1b4d32" data-original="#fe646f" class="" opacity="1"></path>
			<path d="M0 0c13.104 0 23.727 10.622 23.727 23.726V48.95h-47.453V23.726C-23.726 10.622-13.104 0 0 0" style="fill-opacity:1;fill-rule:nonzero;stroke:none" transform="translate(276 406.6)" fill="#1b4d32" data-original="#d65461" class="" opacity="1"></path>
			<path d="M0 0c13.104 0 23.726 10.622 23.726 23.726V48.95h-47.453V23.726C-23.727 10.622-13.104 0 0 0" style="fill-opacity:1;fill-rule:nonzero;stroke:none" transform="translate(127.387 406.6)" fill="#1b4d32" data-original="#d65461" class="" opacity="1"></path>
			<path d="M0 0c-13.104 0-23.726 10.622-23.726 23.726v50.449C-23.726 87.278-13.104 97.9 0 97.9s22.726-10.622 22.726-23.725V23.726C22.726 10.622 13.104 0 0 0" style="fill-opacity:1;fill-rule:nonzero;stroke:none" transform="translate(256 406.6)" fill="#99dbfb" data-original="#99dbfb" class=""></path>
			<path d="M0 0c-13.104 0-23.727 10.622-23.727 23.726v50.449C-23.727 87.278-13.104 97.9 0 97.9c13.104 0 22.726-10.622 22.726-23.725V23.726C22.726 10.622 13.104 0 0 0" style="fill-opacity:1;fill-rule:nonzero;stroke:none" transform="translate(107.387 406.6)" fill="#99dbfb" data-original="#99dbfb" class=""></path>
			<path d="M0 0c-13.104 0-23.726 10.622-23.726 23.726v50.449C-23.726 87.278-13.104 97.9 0 97.9s22.727-10.622 22.727-23.725V23.726C22.727 10.622 13.104 0 0 0" style="fill-opacity:1;fill-rule:nonzero;stroke:none" transform="translate(404.613 406.6)" fill="#99dbfb" data-original="#99dbfb" class=""></path>
			<path d="M0 0h-.001C-2.997 0-5.861-.561-8.5-1.574.403-4.993 6.726-13.619 6.726-23.726v-50.449C6.726-84.281.403-92.907-8.5-96.326A23.643 23.643 0 0 1-.001-97.9H0c13.103 0 23.726 10.622 23.726 23.725v50.449C23.726-10.622 13.103 0 0 0" style="fill-opacity:1;fill-rule:nonzero;stroke:none" transform="translate(404.614 504.5)" fill="#7bb5f9" data-original="#7bb5f9" class=""></path>
			<path d="M0 0c-2.996 0-5.86-.561-8.5-1.574C.403-4.993 6.726-13.619 6.726-23.726v-50.449C6.726-84.281.403-92.907-8.5-96.326A23.652 23.652 0 0 1 0-97.9c13.104 0 23.726 10.622 23.726 23.725v50.449C23.726-10.622 13.104 0 0 0" style="fill-opacity:1;fill-rule:nonzero;stroke:none" transform="translate(256 504.5)" fill="#7bb5f9" data-original="#7bb5f9" class=""></path>
			<path d="M0 0a23.67 23.67 0 0 1-8.5-1.574C.403-4.993 6.726-13.619 6.726-23.726v-50.449C6.726-84.281.403-92.907-8.5-96.326A23.648 23.648 0 0 1 0-97.9c13.104 0 23.726 10.622 23.726 23.725v50.449C23.726-10.622 13.104 0 0 0" style="fill-opacity:1;fill-rule:nonzero;stroke:none" transform="translate(107.387 504.5)" fill="#7bb5f9" data-original="#7bb5f9" class=""></path>
			<path d="M0 0h-81.099a5.269 5.269 0 0 0-5.268 5.269v81.098a5.269 5.269 0 0 0 5.268 5.269H0a5.269 5.269 0 0 0 5.269-5.269V5.269A5.269 5.269 0 0 0 0 0" style="fill-opacity:1;fill-rule:nonzero;stroke:none" transform="translate(443.48 199.876)" fill="#1a8008" data-original="#ed6479" class="" opacity="1"></path>
			<path d="M0 0h-81.1a5.267 5.267 0 0 0-5.267 5.269v81.098a5.269 5.269 0 0 0 5.267 5.269H0a5.27 5.27 0 0 0 5.268-5.269V5.269A5.268 5.268 0 0 0 0 0" style="fill-opacity:1;fill-rule:nonzero;stroke:none" transform="translate(296.55 62.429)" fill="#1a8008" data-original="#ed6479" class="" opacity="1"></path>
			<path d="M0 0h-81.099a5.267 5.267 0 0 0-5.268 5.269v81.098a5.269 5.269 0 0 0 5.268 5.269H0a5.27 5.27 0 0 0 5.269-5.269V5.269A5.269 5.269 0 0 0 0 0" style="fill-opacity:1;fill-rule:nonzero;stroke:none" transform="translate(149.618 62.429)" fill="#1a8008" data-original="#ed6479" class="" opacity="1"></path>
			<path d="M0 0h-81.099a5.268 5.268 0 0 0-5.268 5.269v81.098a5.27 5.27 0 0 0 5.268 5.269H0a5.27 5.27 0 0 0 5.269-5.269V5.269A5.268 5.268 0 0 0 0 0" style="fill-opacity:1;fill-rule:nonzero;stroke:none" transform="translate(443.48 62.429)" fill="#1a8008" data-original="#ed6479" class="" opacity="1"></path>
			<path d="M0 0h-81.1a5.268 5.268 0 0 0-5.267 5.269v81.098a5.268 5.268 0 0 0 5.267 5.269H0a5.269 5.269 0 0 0 5.268-5.269V5.269A5.269 5.269 0 0 0 0 0" style="fill-opacity:1;fill-rule:nonzero;stroke:none" transform="translate(296.55 199.876)" fill="#fbbd14" data-original="#f9d065" class="" opacity="1"></path>
			<path d="M0 0h-81.099a5.268 5.268 0 0 0-5.268 5.269v81.098a5.268 5.268 0 0 0 5.268 5.269H0a5.27 5.27 0 0 0 5.269-5.269V5.269A5.27 5.27 0 0 0 0 0" style="fill-opacity:1;fill-rule:nonzero;stroke:none" transform="translate(149.618 199.876)" fill="#fbbd14" data-original="#f9d065" class="" opacity="1"></path>
			<path d="M0 0h146.148" style="stroke-width:15;stroke-linecap:round;stroke-linejoin:round;stroke-miterlimit:10;stroke-dasharray:none;stroke-opacity:1" transform="translate(351.044 347.748)" fill="none" stroke="#000000" stroke-width="15" stroke-linecap="round" stroke-linejoin="round" stroke-miterlimit="10" stroke-dasharray="none" stroke-opacity="" data-original="#000000" class=""></path>
			<path d="M0 0h303.55" style="stroke-width:15;stroke-linecap:round;stroke-linejoin:round;stroke-miterlimit:10;stroke-dasharray:none;stroke-opacity:1" transform="translate(14.808 347.748)" fill="none" stroke="#000000" stroke-width="15" stroke-linecap="round" stroke-linejoin="round" stroke-miterlimit="10" stroke-dasharray="none" stroke-opacity="" data-original="#000000" class=""></path>
			<path d="M0 0h-344.736c-13.808 0-25 11.193-25 25v207.157" style="stroke-width:15;stroke-linecap:round;stroke-linejoin:round;stroke-miterlimit:10;stroke-dasharray:none;stroke-opacity:1" transform="translate(384.544 7.5)" fill="none" stroke="#000000" stroke-width="15" stroke-linecap="round" stroke-linejoin="round" stroke-miterlimit="10" stroke-dasharray="none" stroke-opacity="" data-original="#000000" class=""></path>
			<path d="M0 0h-43.853c-13.807 0-25-11.193-25-25v-158.206" style="stroke-width:15;stroke-linecap:round;stroke-linejoin:round;stroke-miterlimit:10;stroke-dasharray:none;stroke-opacity:1" transform="translate(83.66 455.55)" fill="none" stroke="#000000" stroke-width="15" stroke-linecap="round" stroke-linejoin="round" stroke-miterlimit="10" stroke-dasharray="none" stroke-opacity="" data-original="#000000" class=""></path>
			<path d="M0 0h-101.162" style="stroke-width:15;stroke-linecap:round;stroke-linejoin:round;stroke-miterlimit:10;stroke-dasharray:none;stroke-opacity:1" transform="translate(232.274 455.55)" fill="none" stroke="#000000" stroke-width="15" stroke-linecap="round" stroke-linejoin="round" stroke-miterlimit="10" stroke-dasharray="none" stroke-opacity="" data-original="#000000" class=""></path>
			<path d="M0 0v0c-13.104 0-23.726 10.622-23.726 23.726v50.449C-23.726 87.278-13.104 97.9 0 97.9s23.726-10.622 23.726-23.725V23.726C23.726 10.622 13.104 0 0 0Z" style="stroke-width:15;stroke-linecap:round;stroke-linejoin:round;stroke-miterlimit:10;stroke-dasharray:none;stroke-opacity:1" transform="translate(256 406.6)" fill="none" stroke="#000000" stroke-width="15" stroke-linecap="round" stroke-linejoin="round" stroke-miterlimit="10" stroke-dasharray="none" stroke-opacity="" data-original="#000000" class=""></path>
			<path d="M0 0v0c-13.104 0-23.727 10.622-23.727 23.726v50.449C-23.727 87.278-13.104 97.9 0 97.9c13.104 0 23.726-10.622 23.726-23.725V23.726C23.726 10.622 13.104 0 0 0Z" style="stroke-width:15;stroke-linecap:round;stroke-linejoin:round;stroke-miterlimit:10;stroke-dasharray:none;stroke-opacity:1" transform="translate(107.387 406.6)" fill="none" stroke="#000000" stroke-width="15" stroke-linecap="round" stroke-linejoin="round" stroke-miterlimit="10" stroke-dasharray="none" stroke-opacity="" data-original="#000000" class=""></path>
			<path d="M0 0v0c-13.104 0-23.726 10.622-23.726 23.726v50.449C-23.726 87.278-13.104 97.9 0 97.9s23.727-10.622 23.727-23.725V23.726C23.727 10.622 13.104 0 0 0Z" style="stroke-width:15;stroke-linecap:round;stroke-linejoin:round;stroke-miterlimit:10;stroke-dasharray:none;stroke-opacity:1" transform="translate(404.613 406.6)" fill="none" stroke="#000000" stroke-width="15" stroke-linecap="round" stroke-linejoin="round" stroke-miterlimit="10" stroke-dasharray="none" stroke-opacity="" data-original="#000000" class=""></path>
			<path d="M0 0h-81.099a5.269 5.269 0 0 0-5.268 5.269v81.098a5.269 5.269 0 0 0 5.268 5.269H0a5.269 5.269 0 0 0 5.269-5.269V5.269A5.269 5.269 0 0 0 0 0Z" style="stroke-width:15;stroke-linecap:round;stroke-linejoin:round;stroke-miterlimit:10;stroke-dasharray:none;stroke-opacity:1" transform="translate(443.48 199.876)" fill="none" stroke="#000000" stroke-width="15" stroke-linecap="round" stroke-linejoin="round" stroke-miterlimit="10" stroke-dasharray="none" stroke-opacity="" data-original="#000000" class=""></path>
			<path d="M0 0h-81.1a5.267 5.267 0 0 0-5.267 5.269v81.098a5.269 5.269 0 0 0 5.267 5.269H0a5.27 5.27 0 0 0 5.268-5.269V5.269A5.268 5.268 0 0 0 0 0Z" style="stroke-width:15;stroke-linecap:round;stroke-linejoin:round;stroke-miterlimit:10;stroke-dasharray:none;stroke-opacity:1" transform="translate(296.55 62.429)" fill="none" stroke="#000000" stroke-width="15" stroke-linecap="round" stroke-linejoin="round" stroke-miterlimit="10" stroke-dasharray="none" stroke-opacity="" data-original="#000000" class=""></path>
			<path d="M0 0h-81.099a5.267 5.267 0 0 0-5.268 5.269v81.098a5.269 5.269 0 0 0 5.268 5.269H0a5.27 5.27 0 0 0 5.269-5.269V5.269A5.269 5.269 0 0 0 0 0Z" style="stroke-width:15;stroke-linecap:round;stroke-linejoin:round;stroke-miterlimit:10;stroke-dasharray:none;stroke-opacity:1" transform="translate(149.618 62.429)" fill="none" stroke="#000000" stroke-width="15" stroke-linecap="round" stroke-linejoin="round" stroke-miterlimit="10" stroke-dasharray="none" stroke-opacity="" data-original="#000000" class=""></path>
			<path d="M0 0h-81.099a5.268 5.268 0 0 0-5.268 5.269v81.098a5.27 5.27 0 0 0 5.268 5.269H0a5.27 5.27 0 0 0 5.269-5.269V5.269A5.268 5.268 0 0 0 0 0Z" style="stroke-width:15;stroke-linecap:round;stroke-linejoin:round;stroke-miterlimit:10;stroke-dasharray:none;stroke-opacity:1" transform="translate(443.48 62.429)" fill="none" stroke="#000000" stroke-width="15" stroke-linecap="round" stroke-linejoin="round" stroke-miterlimit="10" stroke-dasharray="none" stroke-opacity="" data-original="#000000" class=""></path>
			<path d="M0 0h-81.1a5.268 5.268 0 0 0-5.267 5.269v81.098a5.268 5.268 0 0 0 5.267 5.269H0a5.269 5.269 0 0 0 5.268-5.269V5.269A5.269 5.269 0 0 0 0 0Z" style="stroke-width:15;stroke-linecap:round;stroke-linejoin:round;stroke-miterlimit:10;stroke-dasharray:none;stroke-opacity:1" transform="translate(296.55 199.876)" fill="none" stroke="#000000" stroke-width="15" stroke-linecap="round" stroke-linejoin="round" stroke-miterlimit="10" stroke-dasharray="none" stroke-opacity="" data-original="#000000" class=""></path>
			<path d="M0 0h-81.099a5.268 5.268 0 0 0-5.268 5.269v81.098a5.268 5.268 0 0 0 5.268 5.269H0a5.27 5.27 0 0 0 5.269-5.269V5.269A5.27 5.27 0 0 0 0 0Z" style="stroke-width:15;stroke-linecap:round;stroke-linejoin:round;stroke-miterlimit:10;stroke-dasharray:none;stroke-opacity:1" transform="translate(149.618 199.876)" fill="none" stroke="#000000" stroke-width="15" stroke-linecap="round" stroke-linejoin="round" stroke-miterlimit="10" stroke-dasharray="none" stroke-opacity="" data-original="#000000" class=""></path>
			<path d="m0 0 21.748-21.366 50.648 50.993" style="stroke-width:15;stroke-linecap:round;stroke-linejoin:round;stroke-miterlimit:10;stroke-dasharray:none;stroke-opacity:1" transform="translate(97.32 245.694)" fill="none" stroke="#000000" stroke-width="15" stroke-linecap="round" stroke-linejoin="round" stroke-miterlimit="10" stroke-dasharray="none" stroke-opacity="" data-original="#000000" class=""></path>
			<path d="m0 0 21.749-21.366 50.647 50.993" style="stroke-width:15;stroke-linecap:round;stroke-linejoin:round;stroke-miterlimit:10;stroke-dasharray:none;stroke-opacity:1" transform="translate(251 245.694)" fill="none" stroke="#000000" stroke-width="15" stroke-linecap="round" stroke-linejoin="round" stroke-miterlimit="10" stroke-dasharray="none" stroke-opacity="" data-original="#000000" class=""></path>
			<path d="M0 0h-101.162" style="stroke-width:15;stroke-linecap:round;stroke-linejoin:round;stroke-miterlimit:10;stroke-dasharray:none;stroke-opacity:1" transform="translate(380.888 455.55)" fill="none" stroke="#000000" stroke-width="15" stroke-linecap="round" stroke-linejoin="round" stroke-miterlimit="10" stroke-dasharray="none" stroke-opacity="" data-original="#000000" class=""></path>
			<path d="M0 0h54.961c13.808 0 25 11.193 25 25v398.05c0 13.806-11.192 25-25 25H11.108" style="stroke-width:15;stroke-linecap:round;stroke-linejoin:round;stroke-miterlimit:10;stroke-dasharray:none;stroke-opacity:1" transform="translate(417.231 7.5)" fill="none" stroke="#000000" stroke-width="15" stroke-linecap="round" stroke-linejoin="round" stroke-miterlimit="10" stroke-dasharray="none" stroke-opacity="" data-original="#000000" class=""></path>
		</g>
	</g>
</svg>