<?xml version="1.0" encoding="UTF-8"?>
<svg id="Layer_1" data-name="Layer 1" xmlns="http://www.w3.org/2000/svg" width="783.06" height="500" viewBox="0 0 783.06 500">
  <defs>
    <style>
      .cls-1 {
        fill: #48484a;
      }

      .cls-2 {
        fill: #3e7eff;
      }
    </style>
  </defs>
  <g id="Arrow">
    <g>
      <path class="cls-1" d="M376.5,49.85c4.66,0,9.13.25,13.44.73L405.05,0l-125.31,72.34c38.76-15.06,70.85-22.5,96.77-22.5Z"/>
      <path class="cls-1" d="M314.65,255.98c-28.43,0-68.68,12.12-120.16,36.12-30.82,102.65-61.54,205.53-61.54,207.74,0,4.43,148.42-85.68,148.42-85.68l46.88-156.98c-4.07-.79-8.6-1.2-13.6-1.2Z"/>
    </g>
    <path class="cls-1" d="M501.69,85.68L650.11,0l-123.68,414.16s-148.42,90.12-148.42,85.68,123.68-414.16,123.68-414.16Z"/>
  </g>
  <g>
    <path class="cls-2" d="M387.58,393.74c8.33-27.9,18.96-63.37,32.53-108.57,7.65-25.48,15.33-51.01,22.54-74.99-9.84-42.91,8.69-98.04-21.77-125.51-27.6-24.9-95.46-27.11-274.49,77.73l10.22-34.57L0,244.94l87.57,116.26,12.72-43.02c167.3-95.56,231.98-92.76,258.76-68.6,35.11,31.66,5.12,100.07,28.54,144.16Z"/>
    <path class="cls-2" d="M783.06,312.39l-87.57-116.28-7.36,24.84c-30.12,12.75-61.86,24.53-92.24,32.64l-48.09,161.02c31.25-9.31,63.45-22,93.45-35.2l-14.82,50.07,156.62-117.08Z"/>
  </g>
</svg>