<?xml version="1.0" encoding="UTF-8"?>
<svg id="Layer_1" data-name="Layer 1" xmlns="http://www.w3.org/2000/svg" version="1.1" xmlns:xlink="http://www.w3.org/1999/xlink" viewBox="0 0 2124.4 451">
  <defs>
    <style>
      .cls-1 {
        isolation: isolate;
      }

      .cls-2 {
        fill: #fea30b;
      }

      .cls-2, .cls-3 {
        stroke-width: 0px;
      }

      .cls-3 {
        fill: #2b2d42;
      }
    </style>
    <symbol id="Logo_v1" data-name="Logo v1" viewBox="0 0 293 276.6">
      <g>
        <path class="cls-3" d="M247.3,113.3c-2.1-5.1-2.1-10.8,0-15.9l1.7-4.2c8.1-20.2-1.4-43.2-21.4-51.7l-4.2-1.8c-5.1-2.2-9.1-6.2-11.2-11.2l-1.8-4.2c-8.5-20-31.5-29.5-51.7-21.4l-4.2,1.7c-5.1,2-10.8,2-15.9,0l-4.2-1.7c-20.2-8.1-43.2,1.4-51.7,21.4l-1.8,4.2c-2.2,5.1-6.2,9.1-11.2,11.2l-4.2,1.8c-20,8.5-29.5,31.5-21.4,51.7l1.7,4.2c2,5.1,2,10.8,0,15.9l-1.7,4.2c-8.1,20.2,1.4,43.2,21.4,51.7l4.2,1.8c5.1,2.2,9.1,6.2,11.2,11.2l1.8,4.2c8.5,20,31.5,29.5,51.7,21.4l4.2-1.7c5.1-2.1,10.8-2.1,15.9,0l4.2,1.7c20.2,8.1,43.2-1.4,51.7-21.4l1.8-4.2c2.2-5.1,6.2-9.1,11.2-11.2l4.2-1.8c20-8.5,29.5-31.5,21.4-51.7l-1.7-4.2ZM146.5,185.2c-44.1,0-79.9-35.8-79.9-79.9S102.4,25.4,146.5,25.4s79.9,35.8,79.9,79.9-35.8,79.9-79.9,79.9h0Z"/>
        <circle class="cls-3" cx="146.5" cy="105.3" r="70.2"/>
        <g>
          <path class="cls-3" d="M64.8,197l-1.8-4.2c0-.3-.3-.5-.6-.6l-4.2-1.8c-6.7-2.9-12.7-6.8-17.8-11.7L0,226.9l49.2,1.5,10.1,48.2,39.4-47c-15-5.7-27.3-17.3-33.9-32.6h0Z"/>
          <path class="cls-3" d="M252.7,178.7c-5.1,4.9-11.1,8.9-17.9,11.7l-4.2,1.8c-.3,0-.5.3-.6.6l-1.8,4.2c-6.5,15.3-18.9,26.9-33.9,32.6l39.5,47,10-48.2,49.2-1.5-40.4-48.1h0Z"/>
        </g>
        <g>
          <path class="cls-2" d="M174.9,100.4c-7.9-4.6-15.9-.3-15.9-.3,1,3.6,7.8,10.5,16.5,9.8.5,0,1.9-.3,2.7-.5.5-.3.8-.5,1.1-.7.7-.5,1.2-.9,2.1-1.8,6.7-6.6,6-15.8,4.1-18.9,0,0-8.9,3.1-10.6,12.4h0Z"/>
          <path class="cls-2" d="M166.4,83.9c-1-15.4-14.6-15.2-14.6-15.2-.9,3.9,3.1,15.4,14.6,15.2Z"/>
          <path class="cls-2" d="M170,96.4c.5,0,1.9-.5,2.6-.9.4-.3.8-.6,1-.9.6-.6,1.1-1.1,1.8-2,5.6-7.5,3.7-16.5,1.3-19.3,0,0-8.4,4.3-8.8,13.8-8.5-3.4-15.8,2-15.8,2,1.5,3.4,9.2,9.3,17.8,7.3h0Z"/>
          <path class="cls-2" d="M154.8,137.9c18.1,9.1,32.1-5.7,33.4-12.3,0,0-21.4-10.8-33.4,12.3h0Z"/>
          <path class="cls-2" d="M146.5,133.2c-2.4,0-4.4,1.9-4.4,4.4s1.9,4.4,4.4,4.4,4.4-1.9,4.4-4.4-1.9-4.4-4.4-4.4Z"/>
          <path class="cls-2" d="M179.1,114.7c-7.1-5.7-15.7-2.6-15.7-2.6.3,2.4,2.9,6.7,7.1,9.4,5.6-1.4,10.9-.6,14.3.4,7.4-5.6,8.1-14.6,6.6-18,0,0-9.3,1.7-12.3,10.7h0Z"/>
          <path class="cls-2" d="M113.6,108.6c.3.2.7.4,1.2.7.8.3,2.2.5,2.7.5,8.7.7,15.6-6.2,16.5-9.8,0,0-8-4.3-15.9.3-1.7-9.3-10.6-12.4-10.6-12.4-2,3.1-2.6,12.3,4.1,18.9.8.8,1.3,1.3,2.1,1.8h0Z"/>
          <path class="cls-2" d="M126.7,83.9c11.5.2,15.5-11.3,14.6-15.2,0,0-13.6-.3-14.6,15.2Z"/>
          <path class="cls-2" d="M125.1,87c-.4-9.5-8.8-13.8-8.8-13.8-2.4,2.8-4.3,11.8,1.3,19.3.7.9,1.2,1.4,1.8,2s.6.5,1,.9c.8.4,2.2.8,2.6.9,8.5,2,16.3-3.9,17.8-7.3,0,0-7.3-5.4-15.8-2h0Z"/>
          <path class="cls-2" d="M104.9,125.6c1.2,6.6,15.3,21.4,33.4,12.3-12-23.1-33.4-12.3-33.4-12.3Z"/>
          <path class="cls-2" d="M108.3,122c3.4-1,8.7-1.8,14.3-.4,4.2-2.8,6.8-7,7.1-9.4,0,0-8.5-3.1-15.7,2.6-3.1-9-12.3-10.7-12.3-10.7-1.5,3.4-.8,12.4,6.6,18h0Z"/>
        </g>
      </g>
    </symbol>
  </defs>
  <use width="293" height="276.6" transform="translate(0 8.5) scale(1.6)" xlink:href="#Logo_v1"/>
  <g class="cls-1">
    <g class="cls-1">
      <g class="cls-1">
        <path class="cls-2" d="M616.5,231.1c0-16,2.9-30,8.8-42,5.8-12,13.5-22,23-30,9.5-8,20.2-14,32.3-18.1,12.1-4.1,24.4-6.1,37-6.1s19.4,1.2,28.5,3.6c9.1,2.4,17.2,5.8,24.2,10.1,7,4.3,12.6,9.5,16.7,15.7,4.1,6.1,6.2,12.9,6.2,20.3s-2.4,12.7-7.3,16.6c-4.9,3.9-10.9,5.8-18.1,5.8s-13-2-17.4-6.1c-4.4-4.1-8.7-10.5-12.8-19.3-5.4-11.3-10.4-19.5-15.1-24.4-4.7-5-10.7-7.4-18.1-7.4s-8.7,1.2-12.7,3.6c-4,2.4-7.4,5.8-10.3,10.1-2.9,4.3-5.1,9.5-6.8,15.5-1.6,6-2.4,12.7-2.4,20.1,0,12.1.9,23.8,2.7,35.2,1.8,11.4,5,21.6,9.6,30.5,4.6,8.9,10.8,16.1,18.8,21.6,7.9,5.5,18,8.4,30.3,8.8,9.5,0,17.6-1.7,24.2-5,6.6-3.3,12.2-6.9,16.7-10.8,4.6-3.9,8.5-7.5,11.6-10.8,3.1-3.3,6-5,8.5-5s4.3.6,5.3,1.9c1,1.3,1.5,2.7,1.5,4.5s-.3,3.6-.8,5.5c-.5,2-1.1,3.8-1.6,5.4-1.1,3.2-3.3,7.6-6.8,13-3.4,5.4-8.2,10.7-14.3,15.9-6.1,5.2-13.8,9.7-23,13.5-9.2,3.8-20.1,5.7-32.7,5.7s-33-2.7-46.2-8.1c-13.1-5.4-24.1-12.6-33-21.6-8.8-9-15.4-19.4-19.9-31.3-4.4-11.9-6.6-24.2-6.6-37Z"/>
      </g>
    </g>
    <g class="cls-1">
      <g class="cls-1">
        <path class="cls-2" d="M829.9,326.4c-2.5,0-5,0-7.4-.1-2.4,0-4.6-.3-6.5-.7-1.9-.4-3.4-1-4.5-2-1.1-1-1.6-2.5-1.6-4.5s.7-4,2.2-6.1c1.4-2.1,2.9-4.4,4.3-6.9.7-1.3,1.3-2.9,1.8-5,.4-2.1.9-4.2,1.2-6.5.4-2.2.6-4.5.8-6.6.2-2.2.3-4.1.3-5.7v-31.6c0-1.6,0-3.5-.3-5.7-.2-2.2-.5-4.4-.8-6.6-.4-2.2-.8-4.4-1.2-6.3-.5-2-1-3.7-1.8-5.1-1.4-2.5-2.9-4.8-4.3-6.9-1.4-2.1-2.2-4.1-2.2-6.1,0-3.8,1.4-6.2,4.2-7.3,2.8-1.1,6.3-2.3,10.4-3.8,7.6-2.7,13.1-5.3,16.7-7.7,3.6-2.4,6.3-4.5,8.2-6.2,1.9-1.7,3.6-3.1,5-4.1,1.4-1,3.9-1.5,7.3-1.5,6.5,0,9.7,4.1,9.7,12.4s-.2,5.1-.5,8.2c-.4,3.2-.5,6.8-.5,10.9,2.9-3.6,5.8-7.3,8.8-11.1s6.2-7.2,9.7-10.1c3.5-3,7.4-5.4,11.7-7.3,4.3-1.9,9.3-2.8,14.9-2.8s9.1.9,12.7,2.7c3.6,1.8,6.6,4.1,9,7,2.4,2.9,4.2,6.3,5.4,10.1,1.2,3.9,1.8,7.8,1.8,11.8s-.7,8-2,11.6c-1.4,3.6-3.1,6.8-5.3,9.5-2.2,2.7-4.6,4.9-7.3,6.5-2.7,1.6-5.5,2.4-8.4,2.4s-6.3-1.1-8.5-3.2c-2.3-2.2-4.4-4.5-6.3-7.2-2-2.6-4-5-6.1-7.2-2.1-2.2-4.5-3.2-7.2-3.2-4.7,0-8.9,2.8-12.7,8.4-3.8,5.6-7.2,12.3-10.3,20.3v29.2c0,1.6,0,3.5.3,5.7.2,2.2.4,4.4.7,6.6.3,2.3.6,4.4,1.1,6.5.4,2.1,1,3.7,1.8,5,1.3,2.5,2.6,4.8,4.1,6.9,1.4,2.1,2.2,4.1,2.2,6.1s-.5,3.2-1.6,4.2c-1.1,1-2.6,1.7-4.5,2.2-1.9.5-4.1.7-6.5.8-2.4,0-5,.1-7.7.1h-30.3Z"/>
        <path class="cls-2" d="M1005.7,266.2c.7,6.1,2.3,11.2,4.9,15.3,2.5,4.1,5.6,7.3,9.2,9.7,3.6,2.4,7.5,4.1,11.6,5.1,4.1,1,8.1,1.5,11.9,1.5,5.8,0,11.7-1.1,17.8-3.4,6.1-2.2,11.3-5.6,15.4-10.1,2.2-2.3,4.3-3.5,6.5-3.5,3.1,0,4.7,1.4,4.9,4.2.2,2.8-.3,5.4-1.4,8-2.2,5-5,9.8-8.5,14.2-3.5,4.4-7.7,8.2-12.4,11.5-4.8,3.2-10.3,5.8-16.5,7.7s-13.2,2.8-20.9,2.8-19.1-1.5-28.2-4.6c-9.1-3.1-17.2-7.6-24.3-13.5-7.1-5.9-12.8-13.3-17.2-22.1-4.3-8.8-6.5-19.1-6.5-30.8s1.8-20.8,5.5-29.8c3.7-9.1,8.9-16.9,15.7-23.5,6.8-6.6,15-11.7,24.7-15.3,9.7-3.6,20.7-5.4,33-5.4s19.1,1.4,26.1,4.2c6.9,2.8,12.5,6.3,16.6,10.5,4.1,4.2,7.1,8.8,8.8,13.6,1.7,4.9,2.6,9.4,2.6,13.5s-1.5,11.2-4.6,16.2c-3.1,5-7.3,9.4-12.7,13-5.4,3.6-11.8,6.4-19.3,8.5-7.5,2.1-15.5,3.1-24.2,3.1h-5.7c-3.4,0-7.7-.2-12.7-.5ZM1004.1,249.4c.9,1.3,2.1,2.3,3.5,3,1.1.7,2.5,1.4,4.2,1.9,1.7.5,3.7.8,6.1.8s4.5-.7,7-2c2.5-1.4,4.9-3.4,7-6.1s4-6,5.4-10c1.4-4,2.2-8.6,2.2-14s-1.1-11.9-3.2-16.3c-2.2-4.4-5-6.6-8.6-6.6s-5.4,1-8.2,3c-2.8,2-5.3,4.9-7.6,8.6-2.3,3.8-4.1,8.5-5.7,14-1.5,5.6-2.3,12.1-2.3,19.4v2.2c0,.7,0,1.4.3,2.2Z"/>
      </g>
    </g>
    <g class="cls-1">
      <g class="cls-1">
        <path class="cls-2" d="M1243.7,282.4c0,1.6,0,3.5.3,5.7.2,2.2.4,4.4.7,6.6.3,2.3.6,4.4,1.1,6.5.4,2.1,1,3.7,1.8,5,1.4,2.5,2.9,4.8,4.3,6.9,1.4,2.1,2.2,4.1,2.2,6.1,0,3.6-1.8,5.7-5.4,6.3-3.6.6-7.7.9-12.4.9-8.5,0-15.5-1.7-21.2-5-5.7-3.3-10.3-7.9-13.9-13.6-5,6.3-10.9,11.4-17.6,15.4-6.7,4-14,5.9-22.1,5.9s-18.2-1.7-25.9-5.1c-7.7-3.4-14.3-8.3-19.7-14.7-5.4-6.4-9.6-14-12.6-23-3-8.9-4.5-18.8-4.5-29.6s1.4-20.1,4.3-28.9c2.9-8.8,6.9-16.5,12.2-23,5.2-6.5,11.6-11.6,19-15.3,7.5-3.7,15.8-5.5,25-5.5,14,0,25.5,4.5,34.3,13.4-.2-3.4-.6-7-1.2-10.8-.6-3.8-1.4-6.7-2.3-8.9-1.4-2.7-2.8-5.1-4.1-7.1-1.3-2.1-1.9-4-1.9-5.8,0-3.6,1.3-6.1,3.9-7.4,2.6-1.3,6.1-2.8,10.4-4.4,7.4-2.7,12.9-5.1,16.6-7.3,3.7-2.2,6.5-4,8.5-5.7,2-1.6,3.7-2.9,5.3-3.8,1.5-.9,3.8-1.4,6.9-1.4,6.3,0,9.5,3.8,9.5,11.3s-.2,5.4-.7,8.5c-.5,3.2-.7,6.7-.7,10.7v117ZM1169.7,301.6c5,0,9.2-1.5,12.6-4.5,3.3-3,5.9-6.7,7.7-11.1,1.8-4.4,3.1-9.2,3.8-14.2.7-5.1,1.1-9.7,1.1-13.8,0-6-.5-11.6-1.5-16.9-1-5.3-2.5-9.9-4.6-13.8-2.1-3.9-4.7-7-7.8-9.3-3.2-2.3-6.9-3.5-11.2-3.5s-7.8,1.1-10.9,3.4c-3.2,2.3-5.8,5.4-7.8,9.3-2.1,4-3.6,8.6-4.7,13.8s-1.6,10.9-1.6,17.1c0,12.8,2.2,23.3,6.6,31.4,4.4,8.1,10.6,12.2,18.5,12.2Z"/>
      </g>
    </g>
    <g class="cls-1">
      <g class="cls-1">
        <path class="cls-2" d="M1315.8,266.2c.7,6.1,2.3,11.2,4.9,15.3,2.5,4.1,5.6,7.3,9.2,9.7,3.6,2.4,7.5,4.1,11.6,5.1,4.1,1,8.1,1.5,11.9,1.5,5.8,0,11.7-1.1,17.8-3.4,6.1-2.2,11.3-5.6,15.4-10.1,2.2-2.3,4.3-3.5,6.5-3.5,3.1,0,4.7,1.4,4.9,4.2.2,2.8-.3,5.4-1.4,8-2.2,5-5,9.8-8.5,14.2-3.5,4.4-7.7,8.2-12.4,11.5-4.8,3.2-10.3,5.8-16.5,7.7-6.2,1.9-13.2,2.8-20.9,2.8s-19.1-1.5-28.2-4.6c-9.1-3.1-17.2-7.6-24.3-13.5-7.1-5.9-12.8-13.3-17.2-22.1-4.3-8.8-6.5-19.1-6.5-30.8s1.8-20.8,5.5-29.8c3.7-9.1,8.9-16.9,15.7-23.5,6.8-6.6,15-11.7,24.7-15.3,9.7-3.6,20.7-5.4,33-5.4s19.1,1.4,26.1,4.2c6.9,2.8,12.5,6.3,16.6,10.5,4.1,4.2,7.1,8.8,8.8,13.6,1.7,4.9,2.6,9.4,2.6,13.5s-1.5,11.2-4.6,16.2c-3.1,5-7.3,9.4-12.7,13-5.4,3.6-11.8,6.4-19.3,8.5-7.5,2.1-15.5,3.1-24.2,3.1h-5.7c-3.4,0-7.7-.2-12.7-.5ZM1314.1,249.4c.9,1.3,2.1,2.3,3.5,3,1.1.7,2.5,1.4,4.2,1.9,1.7.5,3.7.8,6.1.8s4.5-.7,7-2c2.5-1.4,4.9-3.4,7-6.1,2.2-2.7,4-6,5.4-10,1.4-4,2.2-8.6,2.2-14s-1.1-11.9-3.2-16.3c-2.2-4.4-5-6.6-8.6-6.6s-5.4,1-8.2,3c-2.8,2-5.3,4.9-7.6,8.6-2.3,3.8-4.1,8.5-5.7,14-1.5,5.6-2.3,12.1-2.3,19.4v2.2c0,.7,0,1.4.3,2.2Z"/>
      </g>
    </g>
    <g class="cls-1">
      <g class="cls-1">
        <path class="cls-2" d="M1429.3,326.4c-5.4,0-10.1-.3-14.2-.8-4.1-.5-6.1-2.7-6.1-6.5s.8-4,2.3-6.1c1.5-2.1,2.9-4.4,4.2-6.9,1.1-2.3,1.9-5.6,2.4-9.9.5-4.2.9-8,1.1-11.2v-34.3c0-1.6,0-3.5-.3-5.7-.2-2.2-.4-4.4-.7-6.6-.3-2.2-.6-4.4-1.1-6.3-.5-2-.9-3.7-1.5-5.1-1.3-2.5-2.7-4.8-4.2-6.9-1.5-2.1-2.3-4.1-2.3-6.1,0-3.8,1.4-6.2,4.2-7.3,2.8-1.1,6.3-2.3,10.4-3.8,7.4-2.7,12.9-5.2,16.5-7.6,3.6-2.3,6.4-4.4,8.4-6.1,2-1.7,3.7-3.1,5.1-4.1,1.4-1,3.7-1.5,6.8-1.5,6.7,0,10,4.1,10,12.2s0,1.8-.1,2.8c0,1-.2,2-.4,3.1,12.1-12.1,25.3-18.1,39.7-18.1s15.6,1.4,21.5,4.2c5.8,2.8,10.5,6.4,14,10.8,3.5,4.4,6,9.4,7.6,15,1.5,5.6,2.3,11.1,2.3,16.5v52.1c0,1.6,0,3.5.3,5.7.2,2.2.4,4.4.8,6.6.4,2.3.8,4.4,1.4,6.5.5,2.1,1.2,3.7,1.9,5,1.3,2.5,2.7,4.8,4.2,6.9,1.5,2.1,2.3,4.1,2.3,6.1,0,3.6-2.1,5.7-6.2,6.3-4.1.6-8.8.9-14,.9h-7.8c-4.5,0-8.7-.9-12.7-2.6-4-1.7-7.4-4.1-10.4-7-3-3-5.3-6.4-7-10.4-1.7-4-2.6-8.1-2.6-12.4v-53.2c0-9.4-1.5-16.2-4.6-20.4-3.1-4.2-6.9-6.3-11.6-6.3-6.7,0-11.6,2.6-14.9,7.7-3.2,5.1-4.9,11.1-4.9,18v42.7c0,1.6,0,3.5.3,5.7.2,2.2.4,4.4.7,6.6.3,2.3.6,4.4,1.1,6.5.4,2.1,1,3.7,1.8,5,1.3,2.7,2.7,5,4.2,7,1.5,2,2.3,4,2.3,5.9,0,3.6-2,5.7-6.1,6.3-4.1.6-8.6.9-13.6.9h-30.3Z"/>
      </g>
    </g>
    <g class="cls-1">
      <g class="cls-1">
        <path class="cls-2" d="M1586.4,209.2h-9.7c-2.7,0-5-1-6.9-3-1.9-2-2.8-4.8-2.8-8.4s.9-6.1,2.8-8.1c1.9-2,4.2-3,6.9-3h22.4c3.4,0,6.3-1.1,8.6-3.4,2.3-2.2,3.5-5.2,3.5-8.8v-5.1c0-3.4,1.1-6.3,3.4-8.8,2.2-2.4,5.1-3.6,8.5-3.6s6.6,1.2,8.9,3.6c2.3,2.4,3.5,5.4,3.5,8.8v17.3h20.5c2.5,0,4.6,1,6.3,3,1.7,2,2.6,4.7,2.6,8.1s-.9,6.4-2.6,8.4c-1.7,2-3.8,3-6.3,3h-20.5v72.4c0,9.9,4.2,14.9,12.7,14.9s6.2-.9,8.9-2.7c2.7-1.8,5.8-2.7,9.2-2.7s5,.9,6.3,2.6c1.4,1.7,2,3.6,2,5.8,0,3.1-1.2,6.3-3.5,9.7-2.3,3.4-5.5,6.6-9.5,9.6-4,3-8.6,5.4-14,7.4-5.4,2-11.2,3-17.3,3s-10.7-.7-15.9-2.2c-5.2-1.4-9.9-3.9-14-7.4-4.1-3.5-7.5-8.2-10.1-14-2.6-5.8-3.9-13.2-3.9-22v-74.3Z"/>
        <path class="cls-2" d="M1703.4,326.4c-5.4,0-10.2-.3-14.3-.8-4.1-.5-6.2-2.7-6.2-6.5s.8-4,2.3-5.9c1.5-2,3-4.3,4.5-7,1.1-2.2,2-5.4,2.8-9.7.8-4.3,1.2-8.1,1.2-11.3v-34c0-1.6,0-3.5-.3-5.7-.2-2.2-.5-4.4-.8-6.6-.4-2.2-.8-4.4-1.2-6.3-.5-2-1-3.7-1.8-5.1-1.4-2.5-2.9-4.8-4.5-6.9-1.5-2.1-2.3-4.1-2.3-6.1s.4-3.3,1.2-4.5c.8-1.2,1.9-2.1,3.2-2.8,1.3-.7,2.9-1.4,4.7-1.9,1.8-.5,3.8-1.2,5.9-1.9,7.6-2.9,13.1-5.5,16.6-7.8,3.5-2.3,6.2-4.4,8.1-6.1,1.9-1.7,3.6-3,5-3.9,1.4-.9,3.7-1.4,6.8-1.4,6.8,0,10.3,4.1,10.3,12.2s-.2,5.1-.5,8.2c-.4,3.2-.5,6.8-.5,10.9v69.7c0,3.2.4,6.9,1.2,11.1.8,4.1,1.8,7.5,2.8,10,1.3,2.5,2.6,4.8,3.9,6.9,1.4,2.1,2,4.1,2,6.1,0,3.6-2,5.7-6.1,6.3-4.1.6-8.8.9-14.2.9h-30ZM1685,154.3c0-4.3,1-8.5,3-12.4,2-4,4.6-7.4,7.8-10.4,3.2-3,6.8-5.4,10.8-7.2,4-1.8,8-2.7,12.2-2.7s6.8.7,9.7,2.2c2.9,1.4,5.4,3.3,7.4,5.7,2.1,2.3,3.6,5,4.7,8,1.1,3,1.6,6,1.6,9s-.9,7.8-2.7,11.6c-1.8,3.8-4.1,7.2-7,10.3-2.9,3.1-6.2,5.5-9.9,7.4-3.7,1.9-7.4,2.8-11.2,2.8-7.6,0-13.9-2.1-18.9-6.2-5-4.1-7.6-10.2-7.6-18.1Z"/>
        <path class="cls-2" d="M1877.5,326.4c-5.2,0-10.1-1.2-14.6-3.5-4.5-2.3-8.2-5.6-11.1-9.7-6.3,5.2-13,9.2-20.2,11.9-7.1,2.7-15,4.1-23.7,4.1-13.7,0-24.6-3-32.7-8.9-8.1-5.9-12.2-14.3-12.2-25.1s3.7-18,11.2-25.3c7.5-7.3,18.2-13.5,32.3-18.5,5.8-2.2,10.8-4.1,15.1-5.7,4.3-1.6,8.1-3.1,11.2-4.6,3.1-1.4,5.7-2.9,7.7-4.5,2-1.5,3.6-3.1,4.9-4.7v-13.5c0-11.3-3.4-17-10.3-17s-6.8,1.6-9,4.9c-2.3,3.2-4.1,7.8-5.5,13.8-1.4,6.3-4.6,11.4-9.6,15.3-5,3.9-11.3,5.8-19,5.8-5.8-.4-10.5-2.3-14.2-5.9-3.7-3.6-5.5-8.1-5.5-13.5s1.7-10.4,5-14.9c3.3-4.5,7.9-8.5,13.6-11.9,5.8-3.4,12.5-6.1,20.1-8s15.8-2.8,24.5-2.8,9.9.6,16.7,1.9c6.8,1.3,13.4,3.9,19.8,8,6.4,4.1,11.9,9.9,16.5,17.6,4.6,7.7,6.9,17.9,6.9,30.7v40.2c0,1.6,0,3.5.3,5.7.2,2.2.4,4.4.7,6.6.3,2.3.6,4.4,1.1,6.5.4,2.1,1,3.7,1.8,5,1.3,2.5,2.6,4.8,4.1,6.9,1.4,2.1,2.2,4.1,2.2,6.1,0,3.6-2,5.7-5.9,6.3-4,.6-8.7.9-14.1.9h-7.8ZM1845.4,251.6c-9.7,4.5-16.5,9.7-20.4,15.5-3.9,5.9-5.8,11.8-5.8,17.7s1.4,10.3,4.2,13.6c2.8,3.3,6.6,5,11.5,5s2.2-.2,4.1-.5c1.8-.4,4.1-1.4,6.8-3.2-.2-.9-.3-1.8-.3-2.8v-45.2Z"/>
      </g>
    </g>
    <g class="cls-1">
      <g class="cls-1">
        <path class="cls-2" d="M1934.3,326.4c-5.6,0-10.4-.3-14.5-.8-4.1-.5-6.1-2.7-6.1-6.5s.8-4,2.3-6.1c1.5-2.1,3-4.4,4.5-6.9.7-1.3,1.3-2.9,1.8-5,.4-2.1.9-4.2,1.2-6.5.4-2.2.6-4.5.8-6.6.2-2.2.3-4.1.3-5.7v-80.8c0-1.6,0-3.5-.3-5.7-.2-2.2-.5-4.4-.8-6.6-.4-2.2-.8-4.4-1.2-6.5-.5-2.1-1-3.7-1.8-5-1.4-2.7-2.9-5.1-4.5-7.2-1.5-2.1-2.3-4-2.3-5.8,0-3.6,1.4-6.1,4.3-7.4,2.9-1.4,6.5-2.8,10.8-4.5,7.6-2.7,13.1-5.1,16.7-7.3,3.6-2.2,6.4-4.1,8.4-5.7,2-1.6,3.7-2.9,5.1-3.8,1.4-.9,3.7-1.4,6.8-1.4,6.1,0,9.2,3.8,9.2,11.3s-.2,5.4-.5,8.5c-.4,3.2-.5,6.7-.5,10.7v117c0,1.6,0,3.5.3,5.7.2,2.2.4,4.4.7,6.6.3,2.3.7,4.4,1.2,6.5.5,2.1,1.2,3.7,1.9,5,1.3,2.5,2.7,4.8,4.2,6.9,1.5,2.1,2.3,4.1,2.3,6.1s-.5,3.2-1.6,4.2c-1.1,1-2.6,1.7-4.5,2.2-1.9.5-4.1.7-6.5.8-2.4,0-5,.1-7.7.1h-30Z"/>
      </g>
    </g>
    <g class="cls-1">
      <g class="cls-1">
        <path class="cls-2" d="M1993.2,296.7c0-6.1,1.9-11.1,5.7-15,3.8-3.9,8.9-5.8,15.4-5.8s10,1.6,14.3,4.7c4.3,3.2,6.9,8.5,7.8,16.1.5,5.8,2.5,9.8,5.9,12.2,3.4,2.3,7.3,3.5,11.6,3.5s4.4-.4,6.8-1.1c2.3-.7,4.5-1.8,6.5-3.1,2-1.4,3.6-3,4.9-5,1.3-2,1.9-4.2,1.9-6.8,0-4-2.6-7.1-7.8-9.5-5.2-2.3-11.8-5-19.7-8.1-7.6-2.9-14.4-5.9-20.4-9.2-6-3.2-11.2-6.8-15.5-10.5s-7.6-8-9.9-12.7c-2.3-4.7-3.4-10-3.4-15.9s1.1-12.3,3.4-18c2.2-5.7,5.8-10.6,10.8-14.9,5-4.2,11.4-7.6,19.4-10.1,8-2.5,17.7-3.8,29-3.8s10.6.5,17.2,1.6c6.6,1.1,12.9,3,18.9,5.7,6,2.7,11.1,6.3,15.3,10.8,4.1,4.5,6.2,10.3,6.2,17.3s-2,9.7-5.9,13.5c-4,3.8-9.4,5.7-16.2,5.7s-12.2-1.8-15.9-5.3c-3.8-3.5-6.4-8.6-7.8-15.3-2-9.5-7.5-14.3-16.5-14.3s-8.1,1.4-11.5,4.3c-3.3,2.9-5,6.1-5,9.7-.2,3.6,1.9,6.8,6.3,9.5,4.4,2.7,11.7,6.1,21.7,10.3,7.6,3.1,14.4,6.3,20.5,9.6,6.1,3.3,11.4,7,15.9,10.9,4.5,4,8,8.3,10.4,13.1,2.4,4.8,3.6,10.1,3.6,16.1s-1.8,14.6-5.4,20c-3.6,5.4-8.3,9.7-14.2,13-5.9,3.2-12.6,5.6-20.1,7-7.6,1.4-15.3,2.2-23.2,2.2s-15.3-.6-22.6-1.8-13.8-3.1-19.4-5.7c-5.7-2.6-10.3-5.9-13.8-10-3.5-4.1-5.3-9-5.3-15Z"/>
      </g>
    </g>
  </g>
</svg>