<?xml version="1.0" encoding="UTF-8"?>
<svg id="Layer_5" data-name="Layer 5" xmlns="http://www.w3.org/2000/svg" width="4535.24" height="1080.62" viewBox="0 0 4535.24 1080.62">
  <defs>
    <style>
      .cls-1 {
        fill: #5014d0;
      }

      .cls-1, .cls-2, .cls-3 {
        stroke-width: 0px;
      }

      .cls-2 {
        fill: #0b0b21;
      }

      .cls-3 {
        fill: #7050fc;
      }
    </style>
  </defs>
  <g>
    <path class="cls-3" d="M2127.32,443.17c0-54.19-33.69-62.28-53.77-62.28-16.63,0-30.64,5-41.61,14.86-11.5,10.33-17.08,20.2-17.08,30.18,0,8.61,2.33,16.71,6.9,24.07,2.25,3.63,3.4,8.57,3.4,14.67,0,1.56-1.08,11.13-22.32,46.88-15.63,26.29-34.09,52.82-54.84,78.85-20.69,25.94-48.2,54.48-81.77,84.82-19.78,17.88-32.77,28.39-41.22,34.59,4.04-10.74,11.32-27.45,24.33-53.38,20.29-40.44,40.77-80.87,60.86-120.16,27.96-54.69,31.73-69.82,31.73-77.41,0-11.68-4.95-22.16-14.32-30.31-9.03-7.84-20.19-11.82-33.18-11.82-17.39,0-49.45,10.09-127.5,95.68-10.46-26.45-34.18-31.2-49.83-31.2-28.29,0-30.48,18.54-30.48,24.22,0,22.79-17.97,51.19-53.41,84.4-37.08,34.75-80.24,64.78-128.3,89.25-47.37,24.12-86.57,36.34-116.51,36.34-49.68,0-49.68-22.89-49.68-32.66,0-16.47,7.82-37.11,23.26-61.36,35.19-55.35,100.86-107.22,195.19-154.19,1.88.31,3.91.46,6.1.46,3.44,0,7.24-.37,11.63-1.13,9.79-1.7,13.33-2.23,14.53-2.39,2.37-.31,4.52-.64,6.36-.98.61-.11,2.69-.42,8.85-.98,3.63-.33,11.16-1.52,34.52-7.99,23.49-6.5,30.52-10.25,34.26-14.21,2.58-2.73,6.24-7.9,13.87-25.55,6-13.9,8.79-24.12,8.79-32.17,0-12.25-6.37-22.27-17.94-28.19-9.48-4.86-22.6-7.22-40.08-7.22-32.42,0-60.35,5.48-83.02,16.29-4.53,1.98-13.8,4.31-32.3,4.31-32.64,0-57.21-2.3-73.03-6.83-10.46-2.99-16.95-7.06-16.95-10.61,0-3.93,2.37-12.99,18.24-29.53,13.6-14.17,31.3-28.09,52.62-41.4,21.36-13.34,47.14-25.15,76.6-35.12,22.36-7.56,44.34-12.61,65.57-15.09-1.41,4.43-2.27,8.67-2.58,12.77l-.18,2.42.79,2.29c4.73,13.67,22.62,19.5,59.85,19.5,18.22,0,39.94-5.28,64.56-15.7l.33-.14.19-.09c.47-.19,2.69-1.06,11.48-3.88,8.66-2.77,16.6-6.84,23.6-12.08l.21-.16c6.05-4.75,10.38-11.18,12.88-19.1,2.14-6.78,3.23-14.37,3.23-22.55,0-9.58-4.07-19.98-12.45-31.82-7.99-11.28-18.51-20.15-31.29-26.37l-.8-.39-.84-.26c-19.54-6.08-47.19-9.03-84.52-9.03-18.32,0-41.25,2.79-68.11,8.28-56.39,11.22-109.46,29.99-157.75,55.81-43.8,23.58-77.26,48.92-99.46,75.31-23.06,27.42-34.76,56.77-34.76,87.23,0,27.66,8.87,50.81,26.36,68.82,12.1,12.45,28.47,22.46,48.85,29.89-34.98,22.4-68.35,49.28-99.48,80.15-21.07,20.46-38.38,43.52-51.43,68.54-13.36,25.61-20.13,51.3-20.13,76.38,0,46.84,17.05,82.46,50.64,105.84,14.97,10.51,31.21,18.51,48.27,23.77,17.01,5.25,39.34,7.91,66.36,7.91s60.38-6.53,98.87-19.41c38.2-12.79,73.5-29.48,104.92-49.61,31.17-19.98,59.87-41.85,85.3-65.01,25.73-23.43,46.14-46.99,60.68-70.02,9.81-15.56,16.39-29.68,19.88-42.68,4.63,5.98,10.53,11.47,18,12.03-11.64,21.69-23.4,46.04-35.16,72.79-19.35,43.99-28.75,75.78-28.75,97.18,0,22.96,6.45,40.3,19.18,51.52,12.3,10.85,26.2,16.36,41.31,16.36,25.48,0,58.65-15.32,101.42-46.84,40.76-30.04,79.86-66.08,116.23-107.12,36.3-40.97,66.52-82.05,89.8-122.11,24.27-41.76,36.06-73.2,36.06-96.1Z"/>
    <path class="cls-3" d="M4531.19,654.39c-5.31-16.26-15.75-18.69-21.51-18.69-6.04,0-11.85,2.24-17.25,6.67l-.23.19-.22.2c-57.67,52.45-106.68,96.26-146.41,130.87,29.65-55.74,72.08-130.22,126.68-222.4,34.3-57.72,40.39-68.5,41.99-71.59,3.28-6.37,4.88-11.78,4.88-16.55,0-5.8-2.52-11.53-7.5-17.02l-.19-.21-.2-.2c-1.48-1.48-2.89-3.08-4.23-4.79-3.59-4.56-9.81-7.46-21.46-10-9.12-1.99-15.94-2.96-20.85-2.96-6.67,0-12.97,2.42-18.27,7.02-2.11,1.53-4.12,3.08-6.01,4.65-2.44,2.04-4.96,4.72-7.73,8.23l-5.83,7.4c-1.84,2.34-4.05,5.41-6.75,9.38-2.37,3.48-4.4,6.39-6.02,8.61-1.78,2.42-4.03,5.76-6.89,10.21-20.72,32.1-49.81,68.15-86.5,107.19-32.93,35.28-63.38,64.54-90.48,86.96-15.18,12.55-25.58,20.12-32.63,24.68,6.51-15.06,20.78-44.27,51.86-100.74,60.11-109.21,60.11-120.19,60.11-126.1,0-12.78-5.95-24.24-17.2-33.12-10.88-8.59-19.79-12.59-28.06-12.59-14.48,0-23.81,14.7-26.87,19.52-6.19,9.74-14.85,25.33-26.48,47.67-11.14,21.39-22.09,40.34-32.55,56.32l-.24.37-.21.39c-11.24,20.39-23.59,41.81-36.72,63.65-13.23,21.99-22.67,37.87-28.11,47.23-3.83,6.69-7.21,13.47-10.14,20.31-10.6,10.82-23.24,20.83-37.61,29.76-13.42,8.34-25.89,12.57-37.05,12.57s-19.18-2.95-26.16-9.01c-6.48-5.63-9.64-11.46-9.64-17.83,0-8.92,1.03-17.9,3.06-26.7,1.75-7.58,2.91-13.27,3.55-17.45,47.02-52.17,96.67-111.55,147.63-176.57,32.82-41.78,62.64-81.81,88.61-118.97,26.13-37.4,48.85-74.6,67.52-110.58,19.57-37.71,29.08-65.18,29.08-83.97,0-20.42-7.01-36.25-20.84-47.05-12.95-10.11-28.1-15.23-45.02-15.23-26.59,0-57.12,16.33-93.36,49.91-34.1,31.6-73.85,79.45-118.13,142.2-39.47,55.74-75.4,124.13-106.79,203.29-21.44,54.07-35.7,103.92-42.66,148.95-9.02,7.37-21.24,18.77-38.36,36.41-10.65,10.93-23.4,21.03-37.88,30.03-13.42,8.34-25.89,12.57-37.05,12.57s-19.18-2.95-26.16-9.01c-6.48-5.63-9.64-11.46-9.64-17.83,0-8.92,1.03-17.9,3.06-26.7,1.75-7.58,2.91-13.27,3.55-17.45,47.02-52.17,96.68-111.56,147.63-176.57,32.82-41.77,62.63-81.8,88.61-118.97,26.13-37.4,48.85-74.6,67.52-110.58,19.57-37.71,29.08-65.18,29.08-83.97,0-20.42-7.01-36.24-20.84-47.05-12.95-10.11-28.1-15.23-45.02-15.23-26.59,0-57.12,16.33-93.36,49.91-34.1,31.6-73.85,79.45-118.13,142.2-39.47,55.73-75.39,124.13-106.79,203.29-20.47,51.61-34.39,99.37-41.67,142.78-2.27,2.21-6.52,6.7-15.73,16.96-9,10.03-18.3,19.92-27.62,29.39-9,9.14-19.45,17.86-31.04,25.92-12.5,8.68-20.42,10.62-24.92,10.68-.57-1-1.97-4.33-1.97-12.95,0-5.53.53-8.13.85-9.18l.18-.61.12-.62c4.29-23.16,14.03-51.72,28.95-84.89,15.15-33.68,29.13-61.65,41.56-83.13,16.94-29.3,21.89-35.21,23-36.32,6.13-6.13,9.24-15.09,9.24-26.62,0-10.51-4.45-34.96-45.71-34.96-12.04,0-21.19,1.9-28,5.81-3.75,2.16-7.6,5.52-11.74,10.28-3.9-3.83-8.69-7.26-14.36-10.26-11.81-6.25-26.9-9.42-44.87-9.42-44.27,0-92.8,20.42-144.24,60.71-24.05,18.88-46.43,40.1-66.51,63.08-20.39,23.32-37.07,49.48-49.58,77.74-6.09,13.77-10.73,27.61-13.92,41.44-3.63,3.83-7.27,7.63-10.9,11.38-27.22,28.21-44.82,36.34-54.99,38.05-.4-.03-.66-.09-.8-.14-.23-.37-1.15-2.13-1.15-6.97,0-13.89,8.96-48.97,51.64-137.25,1.62-3.22,9-16.4,34.76-60.63,28.87-49.54,34.73-63.13,36.63-69.03l.56-1.74v-1.83c0-4.62-1.53-9.84-4.82-16.43-2.91-5.8-7.22-12.63-14.81-13.9-2.47-.4-5.58-.6-9.5-.6h-.35c-22.38.67-41.14,5.82-55.67,15.29-3.79,2.44-9.75,7.48-22.23,24.99-8.8,12.35-17.91,27.68-27.08,45.56-5.8,11.31-27.37,40.75-97.18,116.77-52.99,57.7-78.3,78.21-89.87,85.46,5.13-17.01,23.67-60.6,85.38-172.18,31.48-56.4,31.48-61.8,31.48-66.15,0-7.68-4.1-15.73-12.92-25.36-8.71-9.5-19.11-14.31-30.92-14.31-.24,0-.48,0-.73,0-12.34.22-24.35,7.77-35.68,22.45-9.52,12.33-21.1,30.58-35.4,55.79-13.78,24.3-25.05,43.91-33.5,58.29-8.75,14.89-14.89,25.63-18.78,32.82-3.95,7.28-9.96,19-17.87,34.82-7.84,15.68-13.9,29.14-18.04,40.05-4.21,3.72-8.84,7.84-13.94,12.39-12,10.58-25.36,20.52-39.7,29.56-12.97,8.17-24.59,12.31-34.53,12.31-6.69,0-6.69-1.46-6.69-5.79,0-5.14.57-12,1.68-20.37,1.7-12.49,14.86-47.45,67.83-143.03,41.22-74.36,74.1-130.67,97.84-167.49,14.6-1.15,50.58-4.57,109.23-10.39,10.24-1.06,19.99-4.19,28.97-9.3,14.32-8.13,17.33-18.66,17.33-26.05,0-12.37-5.52-19.44-10.16-23.19-3.13-2.53-6.76-6.51-10.79-11.84-6.14-8.11-11.71-12.9-17.52-15.08-5.08-1.91-12.49-2.76-24.03-2.76-6.44,0-15.49.36-27.38,1.1.44-.69.91-1.41,1.38-2.16,8.52-13.3,16.04-25.37,22.35-35.89,9.3-15.51,11.07-20.84,11.07-25.26,0-5.02-1.88-9.99-5.6-14.79-3.89-5-9.04-7.95-14.66-8.45l-19.41-4.74-22.49,2.87c-6.76.08-11.37,1.22-14.87,3.67-1.52,1.06-3.4,2.38-18.44,19.56-9.4,10.75-25.57,33.29-49.36,68.83l-34.4,1.53-.32.02c-4.11.3-10.08.59-17.74.87-7.62.29-14.88.59-21.6.9-6.52.31-13.29.69-20.14,1.13-8.93.58-20.33,5.15-35.87,14.37-16.4,9.73-25.5,18.72-28.62,28.25-.12.27-1.1,2.32-5.42,7.09-6.32,6.97-9.52,14.58-9.52,22.62,0,7,3.33,16.76,19.19,23.5,9.48,4.04,19.45,6.09,29.66,6.09h4.03c3.73,0,13.5-.55,54.46-5.08-27.93,44.82-56.1,92.71-83.93,142.69-19.83,35.76-36.53,69.99-49.62,101.75-2.6,6.3-4.95,12.45-7.06,18.43-7.57,7.01-16.69,15.8-27.24,26.25-11.05,10.77-23.66,20.85-37.47,29.96-15.53,10.25-24.68,12.4-29.62,12.4-15.19,0-15.19-4.64-15.19-8.03,0-3.67.94-10.38,5.39-21.54,2.3-5.45,4.56-10.55,6.71-15.15,2.12-4.52,4.99-9.97,8.54-16.21,3.73-6.57,6.87-12.1,9.42-16.59,2.42-4.28,5.72-9.79,9.82-16.37,3.98-6.41,7.01-11.18,8.76-13.8,1.73-2.6,4.4-6.7,8.4-12.94,4.72-7.37,6.3-9.78,6.83-10.58.51-.77,3.39-5,16.92-24.71,10.47-15.26,19.05-28.09,25.5-38.14,6.64-10.35,13.26-22.18,19.67-35.16,7.14-14.45,10.61-26.83,10.61-37.86,0-12.48-5.43-23.75-16.14-33.5-10.4-9.44-24.19-14.23-40.99-14.23-15.41,0-32.71,4.09-51.4,12.14-19.85,8.51-41.57,22.77-65.55,43.12,7.51-16.23,8.82-25.16,8.82-31.04,0-18.51-11.58-25.11-22.42-25.11-35.55,0-61.53,10.08-77.18,29.91-7.62,9.52-17.03,24.06-28.77,44.46l-.06.1c-5.28,9.39-21.8,37.33-49.11,83.03-15.34,25.69-28.56,47.95-39.54,66.62-4.32.62-8.98,2.79-14.74,6.88-4.85,3.44-15.89,12.16-33.74,26.65-17.03,13.83-36.46,27.64-57.74,41.05-23.67,14.86-47.35,22.4-70.37,22.4-46.98,0-47.87-16.85-47.88-22.92.33-.99,3.04-7.14,21.6-20.99,15.21-11.35,37.7-25.37,66.85-41.67,1.57-.85,5.96-2.87,17.91-7.03,11.15-3.88,21.29-9.64,30.12-17.12,10.91-9.23,15.78-16.88,15.78-24.81,0-6.45-2.72-13.71-8.55-22.86-5.62-8.8-11.13-14.57-16.84-17.65l-.89-.48-.96-.32c-2.22-.74-5.75-1.49-15.1-1.49-7.27,0-18.2,2.54-34.4,8-8.98,3.02-15.49,4.76-20.2,5.71,3.58-3.58,8.88-8.28,16.69-14.26,18.6-14.24,34.43-25.1,47.03-32.26,5.82-3.3,11.4-6.21,16.71-8.71.43,6.02,2.1,11.25,4.98,15.56,4.38,6.57,12.02,9.91,22.71,9.91,23.27,0,44.25-8.59,62.38-25.54,18.35-17.16,27.66-37.5,27.66-60.48,0-9.3-3.8-22.18-21.93-30.72-11.68-5.49-23.45-8.28-34.97-8.28-42.96,0-92.14,14.79-146.1,43.91-24.81,13.19-46.1,30.34-63.28,50.98-17.99,21.61-27.11,42.81-27.11,63s1.9,33.13,5.82,42.54c1.9,4.57,4.69,8.76,8.37,12.56-48.36,22.8-72.85,55.04-72.85,96.05,0,36.19,19.18,63.27,56.96,80.47,19.67,9.03,45.86,13.6,77.86,13.6,39.97,0,81.74-12.24,124.78-36.47.9,1.02,1.9,1.95,3.02,2.79,2.42,1.81,6.97,4.46,22.33,10.3,12.04,4.58,21.68,6.81,29.45,6.81,10.49,0,20.8-7.35,33.52-23.92,34.84-46.36,65.2-83.9,90.23-111.59,25.04-27.69,57.34-60.81,95.99-98.43,13.27-12.91,23.96-22.79,32.57-30.35-.3.45-.61.91-.92,1.37-15.59,23.23-28.87,43.87-39.47,61.35-10.86,17.89-21.6,39.6-31.93,64.5-10.69,25.79-16.12,49.37-16.12,70.08,0,22.71,9.19,42.18,27.32,57.86,17.56,15.21,35.88,23.09,54.45,23.45,1.05.02,2.1.03,3.15.03,15.91,0,30.8-2.33,44.28-6.92l.18-.06c17.35-6.23,38.9-19.62,65.28-40.6,2.96,6.53,6.71,12.46,11.27,17.75,12.88,14.94,32.75,25.03,59.08,30.01,4.65,1.05,9.67,1.58,14.92,1.58,22.76,0,45.66-7.25,68.07-21.53,6.43-4.1,13.34-8.83,20.71-14.18,2.77,5.14,6.27,10.18,10.52,15.1,12.57,14.57,29.18,21.96,49.37,21.96,38.16,0,85.63-31.96,144.34-97.38-.71,5.86-1.07,11.74-1.07,17.63,0,28.09,8.59,48.4,25.54,60.36,15.68,11.08,33.01,16.7,51.52,16.7,28.91,0,59.43-13.02,90.71-38.7.45-.37.88-.73,1.32-1.1,3.83,6.02,8.39,11.53,13.72,16.48,15.01,14.29,34.43,21.53,57.71,21.53s50.85-11.67,85.27-35.69c20.76-14.49,40.19-31.13,58.07-49.74-.05,1.65-.08,3.32-.08,5.01,0,20.35,6.55,39.1,19.47,55.74,13.62,17.56,34.58,26.46,62.29,26.46s56.11-12.93,87.52-38.44c9-7.31,17.02-14.29,24.15-20.98,4.11,11.92,9.97,22.41,17.6,31.36,16.88,19.81,41.41,29.85,72.93,29.85,29.69,0,61.37-8,94.17-23.77,18.56-8.92,36.17-20.56,52.69-34.78,4.05,10.82,9.6,20.41,16.66,28.69,16.88,19.81,41.41,29.85,72.93,29.85,29.69,0,61.37-8,94.17-23.77,2.11-1.02,4.21-2.07,6.3-3.16,3.34,5,7.52,9.23,12.59,12.63,13.25,8.89,27.04,13.4,40.99,13.4h3.75l.61-.06c24.83-2.62,50.68-14.53,76.82-35.4,8.2-6.55,16.65-13.77,25.35-21.66-22.23,41.76-28.34,52.87-29.69,55.11-1.19,1.46-6.55,7.3-30.37,30.57-19.69,19.23-36.31,37.47-49.44,54.27-35.2,45.47-53.05,86.3-53.05,121.34s18.78,53.32,52.87,53.32c1.99,0,5.81-.19,17.78-1.65,11.24-1.39,23.86-9.13,38.57-23.66,13.27-13.11,24.61-27.16,33.72-41.76,8.72-13.99,17.02-28,24.68-41.67,8.82-15.74,11.4-19.54,12.06-20.41,77.98-83.89,162.31-160.88,250.65-228.83l.36-.28.34-.3c5.61-5.06,8.34-13.31,8.34-25.24,0-15.56-1.32-27.18-4.05-35.53ZM4230.75,204.3c-7.45,19.68-29.29,60.13-87.76,143.26-38.84,55.24-72.64,101.65-101.05,138.79,9.97-24.31,20.26-45.98,30.79-64.81,19.5-34.9,51.69-82.54,95.67-141.57,20.4-27.39,37.36-48.64,50.39-63.16,4.84-5.39,8.78-9.45,11.96-12.52ZM3994.3,204.3c-7.45,19.67-29.29,60.12-87.76,143.27-38.84,55.24-72.64,101.65-101.05,138.79,9.97-24.31,20.26-45.98,30.79-64.81,19.51-34.91,51.69-82.54,95.67-141.57,20.4-27.39,37.36-48.64,50.39-63.16,4.84-5.39,8.78-9.46,11.96-12.52ZM3342.35,716.36c-.06-.75-.1-1.65-.1-2.71,0-3.78,2.23-16.45,22.86-52.41,15.72-27.41,33.16-51.21,51.8-70.7,43.16-44.81,85.22-71.31,125.4-79.09-31.99,43.81-54.13,73.48-65.87,88.29-12.05,14.91-37.17,38.89-74.67,71.27-37.45,32.33-53.21,42.29-59.41,45.36Z"/>
  </g>
  <g>
    <g>
      <path class="cls-2" d="M1035.03,340.66l-29.79,25c-27.97-65.63-69.24-125.7-122.48-177.06-21.18-20.44-43.78-39.04-67.67-55.72l26.76-22.45c49.03-41.15,122.13-34.75,163.27,14.28l44.2,52.68c41.14,49.03,34.75,122.13-14.29,163.27Z"/>
      <path class="cls-2" d="M60.26,257.09c-13.58,18.75-25.89,38.19-36.9,58.2-31.85-42.13-31.64-102.12,3.76-144.3l44.2-52.68c40.57-48.35,112.21-55.24,161.21-15.97-66.81,37.89-125.67,90.42-172.27,154.75Z"/>
      <path class="cls-2" d="M264.66,141.71l-187.05,222.93-16.5-13.84c45.27-87.59,116.02-161.43,203.55-209.09Z"/>
    </g>
    <path class="cls-2" d="M632.19,101.16l-25.72,61.55c14.16,4.55,28.03,9.83,41.56,15.82l18.06-66.64c-11.14-3.97-22.45-7.55-33.9-10.73ZM997.84,576.07c.05-207.76-128.55-378.89-303.64-453.22l-18.7,69.01c134,71.05,228.87,212.77,229.09,384.21-1.59,302.21-298.49,510.55-582.66,401.5-164.97-62.23-278.61-224.58-277.64-401.5-1.64-177.3,111.43-340.79,276.72-403.72,87.3-33.73,175.69-37.52,256.37-17.85l25.32-60.58c-67.16-14.35-138.5-15.11-210.27.45-45.45,9.69-88.3,25.84-127.75,47.33,0,0-.01,0-.01.01h-.01c-87.53,47.66-158.28,121.5-203.55,209.09C18.63,432.99-1.38,527.28,8.31,623.32c10.84,112.98,57.37,211.47,126.3,287.16,31.37,34.46,67.4,64.19,106.82,88.41,125.21,76.98,284.64,98.35,438.09,39,29.69-11.27,57.92-25.33,84.41-41.81,40.57-25.22,77.06-56.11,108.49-91.34,79.3-88.92,126.37-205.52,125.42-328.67Z"/>
    <polygon class="cls-2" points="898.72 1062.76 867.79 1080.62 804.72 1029.28 763.93 996.08 743.3 979.29 872.42 904.74 873.2 904.29 883.11 965.85 898.72 1062.76"/>
    <path class="cls-2" d="M633.62,231.69l-97.74,360.72-37.67-12.91-29.96-10.27-.15,31.66-.12,25.93-251.64-40.8.1-21.07,202.33-30.87,34.73-5.3,13.54-32.41,118.56-283.73c15.58,4.92,30.86,10.91,45.71,17.97.77.36,1.54.72,2.31,1.08Z"/>
    <path class="cls-2" d="M849.74,566.05c-2.69-129.91-76.58-254.56-188.91-320.04l-104.38,385.17-58.39-20.02-.24,50.89-311.6-50.52.34-72.37,245.75-37.49,54.94-131.47h-11.59l-12.76-100h50l-7.09,55.59,50.6-121.09c-53.1-12.15-108.76-12.71-162.52-2.54-43.74,8.27-86.23,23.64-125.05,45.64-118.6,66.41-194.02,191.78-193.49,328.27-.52,136.5,74.88,261.84,193.49,328.27,64.76,36.7,139.73,54.94,213.73,52.55.05.01.1.01.15,0,51.23-1.66,102-13.2,148.59-35.36,79.53-36.87,143.02-102.39,180.64-180.31,24.46-46.89,38.28-100.21,38.28-156.76,0-6.18-.16-12.32-.49-18.41ZM463.68,885.55l12.76-100h24.48l12.76,100h-50ZM811.03,591.38l-100-12.76v-24.48l100-12.76v50Z"/>
    <polygon class="cls-2" points="265.51 979.29 241.43 998.89 200.54 1032.18 141.03 1080.62 110.1 1062.76 124.73 971.86 134.61 910.48 135.61 904.29 265.51 979.29"/>
    <g id="Hand_expanded" data-name="Hand expanded">
      <polygon class="cls-1" points="468.45 526.5 468.25 569.23 468.1 600.89 467.98 626.82 216.34 586.02 216.44 564.95 418.77 534.08 453.5 528.78 468.45 526.5"/>
      <polygon class="cls-1" points="694.54 6.88 679.2 63.49 666.09 111.89 648.03 178.53 634.77 227.46 633.62 231.69 535.88 592.41 498.21 579.5 468.25 569.23 440.56 559.74 453.5 528.78 467.04 496.37 585.6 212.64 587.12 209.01 606.47 162.71 632.19 101.16 651.61 54.67 674.46 0 694.54 6.88"/>
    </g>
  </g>
</svg>