<?xml version="1.0" encoding="UTF-8"?>
<svg id="Layer_1" data-name="Layer 1" xmlns="http://www.w3.org/2000/svg" width="989.43" height="234.45" viewBox="0 0 989.43 234.45">
  <defs>
    <style>
      .cls-1 {
        fill: #334454;
      }

      .cls-1, .cls-2 {
        stroke-width: 0px;
      }

      .cls-2 {
        fill: #08a0e9;
      }
    </style>
  </defs>
  <g>
    <path class="cls-2" d="M126.88,47.13h-12.57c-4.25,0-7.11,4.5-5.43,8.55l7.66,18.44c.93,2.25,3.07,3.7,5.43,3.7h9.81c2.36,0,4.5-1.46,5.43-3.7l7.66-18.44c1.68-4.04-1.18-8.55-5.43-8.55h-12.57Z"/>
    <polygon class="cls-2" points="143.04 181.03 135.34 86.72 126.88 86.72 126.8 86.72 118.35 86.72 110.64 181.03 126.8 192.44 126.88 192.44 143.04 181.03"/>
    <g>
      <path class="cls-1" d="M239.78,47.13h-56.11V9.95c0-5.49-4.45-9.95-9.95-9.95h-93.69c-5.49,0-9.95,4.45-9.95,9.95v37.19H13.98c-7.72,0-13.98,5.9-13.98,13.19v47.36c0,6.02,4.32,11.27,10.5,12.77l91.16,22.1,5.01-61.28c-.49-.8-.92-1.64-1.29-2.52l-7.66-18.44c-1.77-4.26-1.86-8.95-.36-13.18h-15.19v-25.1c0-5.49,4.45-9.95,9.95-9.95h69.53c5.49,0,9.95,4.45,9.95,9.95v25.1h-15.19c1.5,4.23,1.41,8.92-.36,13.18l-7.66,18.44c-.38.92-.84,1.8-1.36,2.63l5,61.19,91.24-22.11c6.18-1.5,10.5-6.75,10.5-12.77v-47.36c0-7.28-6.26-13.19-13.98-13.19Z"/>
      <path class="cls-1" d="M155.65,186.93l-24.93,17.6h-7.75l-24.93-17.6,2.63-32.18-91.6-22.2v96.73c0,2.86,2.32,5.18,5.18,5.18h225.26c2.86,0,5.18-2.32,5.18-5.18v-96.73l-91.68,22.22,2.63,32.17Z"/>
    </g>
  </g>
  <g>
    <path class="cls-2" d="M341.41,185.62v-95.1h46.46c11.96,0,20.94,2.26,26.97,6.79,6.02,4.53,9.03,10.51,9.03,17.93,0,4.98-1.22,9.31-3.67,12.97s-5.82,6.5-10.12,8.49c-4.3,1.99-9.17,2.99-14.6,2.99l2.58-5.71c5.98,0,11.25,1,15.83,2.99,4.57,1.99,8.17,4.89,10.8,8.69,2.63,3.8,3.94,8.47,3.94,13.99,0,8.15-3.22,14.52-9.65,19.09-6.43,4.57-15.9,6.86-28.39,6.86h-49.18ZM363.28,169.04h25.81c5.62,0,9.92-.95,12.91-2.85,2.99-1.9,4.48-4.84,4.48-8.83s-1.49-7.06-4.48-8.97c-2.99-1.9-7.29-2.85-12.91-2.85h-27.44v-16.03h23.5c5.34,0,9.44-.93,12.29-2.78,2.85-1.86,4.28-4.69,4.28-8.49s-1.43-6.61-4.28-8.42c-2.85-1.81-6.95-2.72-12.29-2.72h-21.87v61.95Z"/>
    <path class="cls-2" d="M443.84,185.62v-73.09h20.24v20.79l-2.85-6.11c2.17-5.16,5.66-9.08,10.46-11.75,4.8-2.67,10.64-4.01,17.53-4.01v19.7c-.82-.18-1.61-.32-2.38-.41-.77-.09-1.52-.14-2.24-.14-5.98,0-10.73,1.68-14.26,5.03-3.53,3.35-5.3,8.51-5.3,15.49v34.51h-21.19Z"/>
    <path class="cls-2" d="M512.99,102.34c-3.99,0-7.2-1.13-9.65-3.4-2.45-2.26-3.67-5.07-3.67-8.42s1.22-6.16,3.67-8.42c2.45-2.26,5.66-3.4,9.65-3.4s7.09,1.07,9.58,3.19c2.49,2.13,3.74,4.87,3.74,8.22,0,3.53-1.22,6.45-3.67,8.76s-5.66,3.46-9.65,3.46ZM502.4,185.62v-73.09h21.19v73.09h-21.19Z"/>
    <path class="cls-2" d="M579.56,186.7c-8.33,0-15.62-1.63-21.87-4.89-6.25-3.26-11.1-7.72-14.54-13.38-3.44-5.66-5.16-12.11-5.16-19.36s1.65-13.72,4.96-19.43c3.3-5.71,7.92-10.17,13.86-13.38,5.93-3.21,12.61-4.82,20.04-4.82s13.61,1.54,19.36,4.62c5.75,3.08,10.3,7.43,13.65,13.04,3.35,5.62,5.03,12.36,5.03,20.24,0,.82-.05,1.75-.14,2.79-.09,1.04-.18,2.02-.27,2.92h-59.37v-12.36h48.23l-8.29,3.67c.09-3.8-.63-7.11-2.17-9.92-1.54-2.81-3.67-5-6.39-6.59-2.72-1.58-5.89-2.38-9.51-2.38s-6.82.79-9.58,2.38c-2.76,1.59-4.91,3.8-6.45,6.66-1.54,2.85-2.31,6.23-2.31,10.12v3.26c0,4.08.9,7.61,2.72,10.6,1.81,2.99,4.3,5.28,7.47,6.86,3.17,1.59,6.97,2.38,11.41,2.38,3.8,0,7.18-.59,10.12-1.77,2.94-1.18,5.64-2.94,8.08-5.3l11.28,12.23c-3.35,3.8-7.56,6.72-12.63,8.76-5.07,2.04-10.92,3.06-17.53,3.06Z"/>
    <path class="cls-2" d="M620.32,130.46v-16.3h50.67v16.3h-50.67ZM631.59,185.62v-74.72c0-8.33,2.45-14.94,7.34-19.83,4.89-4.89,11.86-7.34,20.92-7.34,2.99,0,5.93.32,8.83.95,2.9.63,5.34,1.59,7.34,2.85l-5.57,15.49c-1.18-.81-2.49-1.45-3.94-1.9-1.45-.45-2.99-.68-4.62-.68-3.08,0-5.46.86-7.13,2.58-1.68,1.72-2.51,4.44-2.51,8.15v6.79l.68,8.97v58.69h-21.33Z"/>
    <path class="cls-2" d="M716.91,186.7c-7.88,0-14.88-1.61-20.99-4.82-6.11-3.21-10.92-7.68-14.4-13.38-3.49-5.71-5.23-12.18-5.23-19.43s1.74-13.81,5.23-19.43c3.49-5.61,8.29-10.05,14.4-13.31,6.11-3.26,13.11-4.89,20.99-4.89s14.42,1.61,20.17,4.82c5.75,3.22,9.89,7.77,12.43,13.65l-16.3,8.97c-1.99-3.44-4.39-5.95-7.2-7.54-2.81-1.58-5.89-2.38-9.24-2.38-3.53,0-6.75.79-9.65,2.38-2.9,1.59-5.21,3.87-6.93,6.86-1.72,2.99-2.58,6.61-2.58,10.87s.86,7.9,2.58,10.94c1.72,3.04,4.03,5.35,6.93,6.93,2.9,1.59,6.11,2.38,9.65,2.38,3.35,0,6.43-.79,9.24-2.38,2.81-1.58,5.21-4.14,7.2-7.68l16.3,8.97c-2.54,5.8-6.68,10.33-12.43,13.59-5.75,3.26-12.48,4.89-20.17,4.89Z"/>
    <path class="cls-2" d="M784.43,186.7c-5.62,0-10.46-.97-14.54-2.92-4.08-1.95-7.22-4.6-9.44-7.95-2.22-3.35-3.33-7.11-3.33-11.28s1.06-8.04,3.19-11.34c2.13-3.31,5.5-5.86,10.12-7.68,4.62-1.81,10.69-2.72,18.2-2.72h19.29v12.23h-17.12c-4.98,0-8.4.81-10.26,2.45-1.86,1.63-2.79,3.67-2.79,6.11,0,2.72,1.06,4.87,3.19,6.45,2.13,1.59,5,2.38,8.63,2.38s6.86-.82,9.71-2.45c2.85-1.63,4.87-4.12,6.04-7.47l3.26,9.92c-1.54,4.53-4.35,8.04-8.42,10.53-4.08,2.49-9.33,3.74-15.76,3.74ZM806.71,185.62v-14.26l-1.36-3.12v-25.54c0-4.53-1.38-8.06-4.14-10.6-2.76-2.53-7-3.8-12.7-3.8-3.9,0-7.72.61-11.48,1.83-3.76,1.22-7,2.88-9.71,4.96l-7.47-14.81c3.98-2.9,8.78-5.09,14.4-6.59,5.61-1.49,11.32-2.24,17.12-2.24,11.14,0,19.79,2.63,25.95,7.88,6.16,5.25,9.24,13.45,9.24,24.59v41.71h-19.83Z"/>
    <path class="cls-2" d="M870.29,186.7c-6.25,0-12.23-.75-17.93-2.24s-10.28-3.37-13.72-5.64l6.93-15.08c3.44,1.99,7.45,3.65,12.02,4.96,4.57,1.31,9.08,1.97,13.52,1.97,4.89,0,8.36-.59,10.39-1.77,2.04-1.18,3.06-2.81,3.06-4.89,0-1.72-.79-3.01-2.38-3.87-1.59-.86-3.67-1.52-6.25-1.97-2.58-.45-5.46-.9-8.63-1.36-3.17-.45-6.32-1.09-9.44-1.9-3.12-.82-6.02-1.97-8.69-3.46-2.67-1.49-4.8-3.55-6.39-6.18-1.58-2.63-2.38-6.02-2.38-10.19,0-4.62,1.36-8.72,4.08-12.29,2.72-3.58,6.57-6.36,11.55-8.35,4.98-1.99,11-2.99,18.07-2.99,5.07,0,10.17.57,15.28,1.7,5.12,1.13,9.44,2.7,12.97,4.69l-7.2,15.08c-3.44-1.99-6.95-3.4-10.53-4.21-3.58-.82-7-1.22-10.26-1.22-4.89,0-8.42.63-10.6,1.9-2.17,1.27-3.26,2.9-3.26,4.89,0,1.81.82,3.19,2.45,4.14,1.63.95,3.76,1.65,6.39,2.11,2.62.45,5.52.91,8.69,1.36,3.17.45,6.29,1.09,9.37,1.9,3.08.81,5.95,1.97,8.63,3.46,2.67,1.49,4.8,3.56,6.38,6.18,1.58,2.63,2.38,6.02,2.38,10.19,0,4.44-1.36,8.4-4.08,11.89-2.72,3.49-6.64,6.23-11.75,8.22-5.12,1.99-11.34,2.99-18.68,2.99Z"/>
    <path class="cls-2" d="M954.11,186.7c-8.33,0-15.62-1.63-21.87-4.89-6.25-3.26-11.1-7.72-14.54-13.38-3.44-5.66-5.16-12.11-5.16-19.36s1.65-13.72,4.96-19.43c3.3-5.71,7.92-10.17,13.86-13.38,5.93-3.21,12.61-4.82,20.04-4.82s13.61,1.54,19.36,4.62c5.75,3.08,10.3,7.43,13.65,13.04,3.35,5.62,5.03,12.36,5.03,20.24,0,.82-.05,1.75-.14,2.79-.09,1.04-.18,2.02-.27,2.92h-59.37v-12.36h48.23l-8.29,3.67c.09-3.8-.63-7.11-2.17-9.92-1.54-2.81-3.67-5-6.39-6.59-2.72-1.58-5.89-2.38-9.51-2.38s-6.82.79-9.58,2.38c-2.76,1.59-4.91,3.8-6.45,6.66-1.54,2.85-2.31,6.23-2.31,10.12v3.26c0,4.08.9,7.61,2.72,10.6,1.81,2.99,4.3,5.28,7.47,6.86,3.17,1.59,6.97,2.38,11.41,2.38,3.8,0,7.18-.59,10.12-1.77,2.94-1.18,5.64-2.94,8.08-5.3l11.28,12.23c-3.35,3.8-7.56,6.72-12.63,8.76-5.07,2.04-10.92,3.06-17.53,3.06Z"/>
  </g>
</svg>