<?xml version="1.0" encoding="UTF-8"?>
<svg id="Layer_1" data-name="Layer 1" xmlns="http://www.w3.org/2000/svg" width="3154.42" height="500" viewBox="0 0 3154.42 500">
  <defs>
    <style>
      .cls-1 {
        fill: #48484a;
      }

      .cls-2 {
        fill: #3e7eff;
      }
    </style>
  </defs>
  <g>
    <path class="cls-2" d="M951.69,132.75h58.39l51.32,141.56,30.08-141.56h60.16l-52.73,248.8h-58.75l-50.96-141.92-30.08,141.92h-60.16l52.73-248.8Z"/>
    <path class="cls-2" d="M1307.71,358.54l-2.12,1.42c-21.23,15.22-49.9,26.19-83.17,26.19-54.15,0-77.51-29.37-83.88-54.86-3.54-13.45-2.83-27.25,0-41.05,11.33-56.98,64.41-98.39,122.45-98.39,52.38,0,71.14,30.79,75.74,55.21,2.48,14.16,1.42,29.02-1.42,43.53-1.42,5.66-2.83,10.97-4.25,16.28l-1.06,2.83h-136.25c1.42,15.93,10.26,32.91,37.87,32.91,18.4,0,34.33-5.31,45.65-14.86l5.31-5.31,25.13,36.1ZM1281.88,271.13c.35-7.08-.35-15.57-4.25-22.3-4.25-8.49-11.68-13.45-25.84-13.45-24.77,0-39.99,14.51-49.9,35.75h79.98Z"/>
    <path class="cls-2" d="M1358.67,196.45h29.37l13.45-63.7h57.33l-13.45,63.7h40.35l-8.14,38.93h-40.35l-17.7,82.82c-3.89,18.05-1.06,24.42,27.25,24.42h7.79l-9.2,43.53h-5.31c-76.8,0-85.29-32.21-77.51-69.37l17.34-81.4h-29.37l8.14-38.93Z"/>
    <path class="cls-2" d="M1490.68,196.45h59.81l10.97,92.37,50.26-92.37h42.12l10.97,92.37,49.9-92.37h59.81l-100.16,185.09h-46.36l-12.39-105.11-56.63,105.11h-47.07l-21.23-185.09Z"/>
    <path class="cls-2" d="M1753.97,288.11c12.03-58.75,67.24-96.26,125.99-96.26,54.15,0,77.86,29.73,84.58,55.56,3.18,13.09,2.48,26.9-.35,40.7-12.74,59.81-64.41,98.03-125.64,98.03-57.33,0-80.34-31.5-85.29-58.75-2.83-12.74-2.12-26.19.71-39.28ZM1847.76,342.62c32.21,0,53.09-25.13,58.75-54.86,2.12-9.2,2.48-22.65-2.12-33.62-5.66-11.33-15.93-18.76-33.62-18.76-30.44,0-53.09,23.71-59.46,52.38-1.77,9.56-2.83,23.36,2.12,35.04,4.96,12.03,14.86,19.82,34.33,19.82Z"/>
    <path class="cls-2" d="M2002.4,196.45h42.47l3.18,16.63c17.34-12.03,40.7-21.23,67.6-21.23h5.31l-11.33,52.73h-5.31c-26.19,0-41.05,5.31-53.79,20.17-.71.71-2.83,3.19-4.25,5.31q-.35.35-.71.71l-1.06,1.77c-.35,0-.35.35-.71.71v.35c-3.89,14.16-4.95,21.94-7.79,35.39l-15.57,72.55h-57.33l39.28-185.09Z"/>
    <path class="cls-2" d="M2147.85,132.75h57.33l-24.42,115.73,61.23-52.03h77.15l-98.74,78.21,66.53,106.88h-72.2l-42.82-68.66-6.02,4.96-13.45,63.7h-57.33l52.73-248.8Z"/>
    <path class="cls-2" d="M2463.17,132.75h59.46l37.16,132.71,93.08-132.71h59.46l-52.73,248.8h-60.16l26.9-126.34-92.37,131.3-36.45-131.3-26.9,126.34h-60.16l52.73-248.8Z"/>
    <path class="cls-2" d="M2847.49,367.74c-18.05,10.97-41.05,18.4-66.89,18.4-52.73,0-75.38-29.73-81.4-54.5-3.18-13.45-2.83-27.25.35-41.41,12.03-58.75,61.93-98.39,122.45-98.39,25.83,0,45.3,7.43,59.1,18.4l8.49-13.8h42.82l-39.28,185.09h-42.82l-2.83-13.8ZM2792.64,342.62c32.2,0,53.09-22.3,59.46-52.38,2.12-9.91,3.19-24.07-1.41-35.39-4.6-11.68-14.86-19.47-35.04-19.47-34.33,0-52.02,24.07-58.75,54.86-2.12,9.91-3.18,23,1.77,33.98,4.95,10.97,14.86,18.4,33.98,18.4Z"/>
    <path class="cls-2" d="M2958.61,196.45h42.47l1.42,14.51c18.4-10.97,41.76-19.11,68.3-19.11,54.5,0,76.09,30.79,82.11,56.27,2.48,13.09,1.77,26.54-1.06,39.99-12.03,58.75-61.93,98.03-122.45,98.03-20.88,0-37.87-4.96-50.96-13.09l-15.22,72.2h-57.33l52.73-248.8ZM3035.76,342.62c33.98,0,52.02-24.07,58.75-54.86,2.12-9.91,2.83-23.36-1.77-33.98-4.96-10.97-14.87-18.4-33.98-18.4s-33.62,7.43-42.47,18.4c-9.91,10.62-14.86,24.07-16.99,33.98-2.12,9.91-3.19,23.71,1.41,35.39s14.87,19.46,35.04,19.46Z"/>
  </g>
  <g>
    <g id="Arrow">
      <g>
        <path class="cls-1" d="M376.5,49.85c4.66,0,9.13.25,13.44.73L405.05,0l-125.31,72.34c38.76-15.06,70.85-22.5,96.77-22.5Z"/>
        <path class="cls-1" d="M314.65,255.98c-28.43,0-68.68,12.12-120.16,36.12-30.82,102.65-61.54,205.53-61.54,207.74,0,4.43,148.42-85.68,148.42-85.68l46.88-156.98c-4.07-.79-8.6-1.2-13.6-1.2Z"/>
      </g>
      <path class="cls-1" d="M501.69,85.68L650.11,0l-123.68,414.16s-148.42,90.12-148.42,85.68,123.68-414.16,123.68-414.16Z"/>
    </g>
    <g>
      <path class="cls-2" d="M387.58,393.74c8.33-27.9,18.96-63.37,32.53-108.57,7.65-25.48,15.33-51.01,22.54-74.99-9.84-42.91,8.69-98.04-21.77-125.51-27.6-24.9-95.46-27.11-274.49,77.73l10.22-34.57L0,244.94l87.57,116.26,12.72-43.02c167.3-95.56,231.98-92.76,258.76-68.6,35.11,31.66,5.12,100.07,28.54,144.16Z"/>
      <path class="cls-2" d="M783.06,312.39l-87.57-116.28-7.36,24.84c-30.12,12.75-61.86,24.53-92.24,32.64l-48.09,161.02c31.25-9.31,63.45-22,93.45-35.2l-14.82,50.07,156.62-117.08Z"/>
    </g>
  </g>
</svg>