<?xml version="1.0" encoding="UTF-8"?>
<svg id="M-FLIX_Image" data-name="M-FLIX Image" xmlns="http://www.w3.org/2000/svg" viewBox="0 0 1224 480">
  <defs>
    <style>
      .cls-1 {
        fill: #e50914;
      }
    </style>
  </defs>
  <path class="cls-1" d="m1,14c1.67-.9,3.5-1.02,5.34-1.08,20.97-.74,41.95-1.26,62.9-2.3,9.99-.5,19.99-.41,29.95-1.14,4.49-.33,5.45,1.53,5.98,5.13,2.62,17.79,5.3,35.57,8.01,53.34,7.24,47.56,14.5,95.12,21.76,142.68,5.4,35.37,10.81,70.75,16.77,106.13,3.34-21.26,6.66-42.53,10.04-63.78,7.85-49.32,15.73-98.64,23.62-147.96,4.81-30.08,9.68-60.16,14.48-90.25,1.4-8.78,1.32-8.76,10.12-8.96,29.64-.67,59.28-1.25,88.91-2.15,5.23-.16,6.47,1.67,6.45,6.57-.23,45.83.32,91.67-.46,137.49-1.02,59.82-.22,119.64-.84,179.45-.3,28.82-.55,57.64-.63,86.46-.01,3.97-1.31,5.64-5.2,6.15-20.14,2.6-40.26,5.34-60.38,8.11-3.27.45-4.11-1.08-4.09-3.94.06-9,.05-18,.07-27,.08-46.83-.36-93.67.39-140.49.7-43.82.26-87.64.71-131.46.02-1.83,0-3.66-.57-5.57-2.32,13.07-4.69,26.12-6.95,39.2-9.19,53.16-18.37,106.31-27.5,159.48-6.54,38.07-13.04,76.14-19.38,114.24-.61,3.64-2.17,5.12-5.59,5.73-17.37,3.1-34.76,6.17-52.06,9.64-4.8.96-6.21-.76-6.89-4.97-4.31-26.63-8.75-53.23-13.11-79.85-7.48-45.67-14.94-91.35-22.4-137.03-5.18-31.71-10.33-63.42-15.5-95.14-.08-.47-.23-.93-.69-2.77,0,13.17,0,24.94,0,36.7-.08,89.5-.14,178.99-.26,268.49-.01,7.65-.51,15.3-.65,22.96-.04,2.51-.83,4.11-3.41,4.71-18.98,4.41-37.95,8.85-56.93,13.26-.62.14-1.32-.05-1.98-.09,0-153.33,0-306.67,0-460Z"/>
  <path class="cls-1" d="m1223,481c-22.25-6.39-44.81-11.6-67.38-16.67-4.83-1.08-7.17-3.14-8.7-7.94-16.24-51.12-32.76-102.15-49.21-153.2-.5-1.55-1.13-3.05-1.75-4.7-1.86,1.14-1.96,2.93-2.5,4.39-16.44,43.83-32.82,87.68-49.23,131.52-2.42,6.46-2.43,6.34-9.5,5.15-18.88-3.17-37.77-6.28-56.66-9.35-6.21-1.01-6.46-1.27-4.01-7.24,26.44-64.42,52.19-129.12,77.83-193.86,2.38-6.02,2.32-11.1.08-17.14-24.86-67-50.13-133.85-76.09-200.44-2.39-6.12-2.28-6.06,4.33-5.89,19.31.51,38.63.86,57.94,1.33,13.82.34,13.79.38,18.24,13.32,14.56,42.38,29.15,84.74,43.74,127.11.37,1.08.84,2.13,1.43,3.63,1.89-1.82,2.3-3.97,2.97-5.88,15.07-42.38,30.18-84.74,45-127.2,1.77-5.06,3.71-6.84,9.44-6.47,19.1,1.24,38.25,1.64,57.39,2.35,5.62.21,5.83.52,3.93,5.79-24.91,69.29-50.28,138.41-76.48,207.22-1,2.63-1.21,5-.25,7.7,27.76,78.53,54.06,157.56,79.56,236.85.51,1.57,1.25,3.07,1.88,4.61-1.21,1.45,2.66,4.93-2,5Z"/>
  <path class="cls-1" d="m679,1c.04,17.49-.04,34.99.2,52.48.07,5.14-2.75,5.64-6.68,5.53-34.47-.99-68.95-.68-103.43-.71-1.83,0-3.69.17-5.49-.03-4.23-.48-5.39,1.4-5.37,5.45.13,23.66.02,47.32,0,70.98,0,9.16-.01,18.33,0,27.49.01,6.8.02,6.82,7.04,6.82,22.83.01,45.65-.04,68.48.04,5.15.02,10.3.57,15.45.64,3.1.04,4.03,1.55,4.02,4.36-.04,16.49-.08,32.99.03,49.48.03,4.15-2.42,4.63-5.53,4.46-15.64-.86-31.29-.77-46.94-.64-12.32.1-24.64-.41-36.96.33-4.7.28-5.68,2.28-5.67,6.55.12,49.15.08,98.3.07,147.45,0,5-.21,10-.06,14.99.12,3.88-1.55,5.29-5.34,5.36-17.15.31-34.29.76-51.44,1.22-3.99.11-7.98.31-11.95.72-3.96.4-5.84-.79-5.73-5.15.25-9.32.15-18.66.15-27.99.05-67.48-.47-134.96.32-202.43.64-54.31.13-108.61.6-162.91.01-1.5.14-2.99.22-4.49,64.67,0,129.33,0,194,0Z"/>
  <path class="cls-1" d="m760,1c1.58,2.42,1.11,5.16,1.12,7.79.08,72.33-.34,144.66.37,216.98.38,38.82.22,77.64.56,116.45.04,4.45,1.61,5.51,5.81,5.78,36.87,2.38,73.72,5.11,110.48,8.79,3.24.32,4.8,1.6,4.8,4.97-.03,17,0,34,.11,50.99.03,3.59-1.56,4.68-4.91,4.34-20.86-2.15-41.72-4.33-62.59-6.3-14.41-1.36-28.84-2.63-43.29-3.48-26.59-1.57-53.19-2.85-79.8-4.1-3.76-.18-4.88-1.81-4.82-5.28.11-6-.06-12-.06-18-.03-85.16.31-170.32-.23-255.48-.26-41.15-.41-82.3-.55-123.45h73Z"/>
  <path class="cls-1" d="m963.22,55.05c1.23,83.95.51,167.91,1.27,251.86.35,38.14.24,76.28.72,114.42.08,6.65-.03,6.76-6.65,5.9-20.63-2.67-41.23-5.5-61.87-8.08-4.13-.52-4.94-2.56-5.06-6.31-1.32-41.3-.52-82.61-.82-123.91-.23-32.15.41-64.32-.22-96.46-1.17-60.63-.47-121.26-.89-181.89-.05-7.36,0-7.15,7.33-6.97,11.66.29,23.32.21,34.98.42,8.65.15,17.3.67,25.95.71,4.25.02,5.35,1.91,5.31,5.83-.15,14.83-.06,29.65-.06,44.48Z"/>
  <path class="cls-1" d="m319.01,241.05c.23-7.07-.3-15.38.57-23.7.37-3.48,1.75-4.45,4.96-4.64,13.61-.8,27.19-2.01,40.81-2.66,31.72-1.53,63.46-2.87,95.19-4.2,7.39-.31,7.53-.11,7.44,7.43-.17,13.3.48,26.61-.57,39.92-.29,3.65-1.51,4.86-5.05,5-22.59.93-45.19,1.82-67.77,3.14-21.9,1.28-43.78,3.05-65.67,4.61-.83.06-1.66.14-2.49.18-7.14.37-7.38.16-7.41-6.86-.02-5.66,0-11.32,0-18.22Z"/>
</svg>