<svg xmlns="http://www.w3.org/2000/svg" viewBox="0 0 554.6 512.4" class="w-35px h-35px mb-0 mr-3"> <g> <g> <path class="cls-2" fill="#334454" d="m233.13,177.62c-1.06-1.74-2.01-3.58-2.81-5.51l-16.74-40.3c-3.87-9.31-4.07-19.56-.79-28.81H30.55c-16.87,0-30.55,12.9-30.55,28.82v103.52c0,13.15,9.44,24.64,22.95,27.91l199.23,48.29,10.94-133.92Z"></path> <path class="cls-2" fill="#334454" d="m524.05,103.01h-182.23c3.28,9.25,3.08,19.5-.79,28.81l-16.74,40.3c-.84,2.02-1.84,3.93-2.97,5.75l10.93,133.73,199.41-48.33c13.51-3.27,22.95-14.76,22.95-27.91v-103.52c0-15.92-13.68-28.82-30.55-28.82Z"></path> </g> <path class="cls-2" fill="#334454" d="m334.43,338.23l5.74,70.3-54.49,38.46h-16.93l-54.49-38.46,5.75-70.34-200.19-48.52v211.4c0,6.26,5.07,11.33,11.33,11.33h492.3c6.26,0,11.33-5.07,11.33-11.33v-211.4l-200.36,48.56Z"></path> <path class="cls-1" fill="#08a0e9" d="m277.3,103.01h-27.47c-9.29,0-15.55,9.84-11.88,18.68l16.74,40.3c2.04,4.91,6.71,8.1,11.88,8.1h21.45c5.16,0,9.83-3.18,11.88-8.1l16.74-40.3c3.67-8.84-2.59-18.68-11.88-18.68h-27.47Z"></path> <polygon class="cls-1" fill="#08a0e9" points="312.62 395.65 295.78 189.53 277.3 189.53 277.13 189.53 258.65 189.53 241.81 395.65 277.13 420.59 277.3 420.59 312.62 395.65"></polygon> </g> <path class="cls-2" fill="#334454" d="m179.59,118.47V48.14c0-12.01,9.73-21.74,21.74-21.74h151.95c12.01,0,21.74,9.73,21.74,21.74v70.32h26.41V21.74c0-12.01-9.73-21.74-21.74-21.74h-204.76c-12.01,0-21.74,9.73-21.74,21.74v96.73h26.41Z"></path> </svg>