<?xml version="1.0" encoding="UTF-8"?>
<svg id="Layer_1" data-name="Layer 1" xmlns="http://www.w3.org/2000/svg" width="477.24" height="450.55" xmlns:xlink="http://www.w3.org/1999/xlink" viewBox="0 0 477.24 450.55">
  <defs>
    <style>
      .cls-1 {
        fill: #fea30b;
      }

      .cls-1, .cls-2 {
        stroke-width: 0px;
      }

      .cls-2 {
        fill: #2b2d42;
      }
    </style>
    <symbol id="Logo_v1" viewBox="0 0 293.06 276.67">
      <g>
        <path class="cls-2" d="M247.33,113.33c-2.05-5.1-2.05-10.8,0-15.9l1.69-4.21c8.11-20.19-1.41-43.16-21.42-51.71l-4.17-1.78c-5.06-2.16-9.08-6.19-11.24-11.24l-1.78-4.17c-8.54-20.01-31.51-29.52-51.71-21.42l-4.21,1.69c-5.1,2.05-10.8,2.05-15.9,0l-4.21-1.69c-20.19-8.11-43.16,1.41-51.71,21.42l-1.78,4.17c-2.16,5.06-6.19,9.09-11.24,11.24l-4.17,1.78c-20.01,8.54-29.52,31.51-21.42,51.71l1.69,4.21c2.05,5.1,2.05,10.8,0,15.9l-1.69,4.21c-8.11,20.19,1.41,43.16,21.42,51.71l4.17,1.78c5.06,2.16,9.08,6.19,11.24,11.24l1.78,4.17c8.54,20.01,31.51,29.52,51.71,21.42l4.21-1.69c5.1-2.05,10.8-2.05,15.9,0l4.21,1.69c20.19,8.11,43.16-1.41,51.71-21.42l1.78-4.17c2.16-5.06,6.19-9.08,11.24-11.24l4.17-1.78c20.01-8.54,29.53-31.51,21.42-51.71l-1.69-4.21ZM146.53,185.3c-44.14,0-79.92-35.78-79.92-79.92S102.39,25.46,146.53,25.46s79.92,35.78,79.92,79.92-35.78,79.92-79.92,79.92Z"/>
        <circle class="cls-2" cx="146.53" cy="105.38" r="70.19"/>
        <g>
          <path class="cls-2" d="M64.8,197.06l-1.78-4.17c-.11-.27-.33-.48-.6-.6l-4.17-1.78c-6.69-2.86-12.71-6.83-17.85-11.71L0,226.95l49.25,1.48,10.01,48.24,39.43-46.99c-14.97-5.72-27.34-17.3-33.89-32.62Z"/>
          <path class="cls-2" d="M252.66,178.8c-5.14,4.88-11.15,8.85-17.85,11.71l-4.18,1.78c-.27.11-.48.33-.59.59l-1.78,4.18c-6.54,15.32-18.91,26.9-33.89,32.62l39.43,46.99,10.01-48.24,49.25-1.48-40.4-48.15Z"/>
        </g>
        <g>
          <path class="cls-1" d="M174.92,100.43c-7.92-4.61-15.9-.27-15.9-.27.96,3.57,7.8,10.54,16.53,9.8.47-.03,1.92-.27,2.72-.54.48-.29.84-.52,1.15-.74.72-.49,1.23-.93,2.07-1.76,6.66-6.6,6.04-15.77,4.06-18.91,0,0-8.92,3.07-10.63,12.42Z"/>
          <path class="cls-1" d="M166.39,83.94c-1.03-15.42-14.61-15.16-14.61-15.16-.85,3.86,3.14,15.36,14.61,15.16Z"/>
          <path class="cls-1" d="M169.97,96.45c.46-.1,1.86-.54,2.61-.92.43-.35.76-.64,1.03-.9.64-.59,1.08-1.09,1.8-2.04,5.65-7.48,3.73-16.47,1.33-19.29,0,0-8.39,4.3-8.76,13.8-8.49-3.44-15.77,1.99-15.77,1.99,1.46,3.39,9.21,9.32,17.76,7.35Z"/>
          <path class="cls-1" d="M154.76,137.96c18.1,9.05,32.13-5.71,33.37-12.33,0,0-21.41-10.77-33.37,12.33Z"/>
          <path class="cls-1" d="M146.51,133.27c-2.41,0-4.35,1.95-4.35,4.36s1.95,4.35,4.35,4.35,4.35-1.95,4.35-4.35-1.95-4.36-4.35-4.36Z"/>
          <path class="cls-1" d="M179.07,114.78c-7.15-5.73-15.68-2.61-15.68-2.61.28,2.42,2.88,6.67,7.12,9.45,5.58-1.43,10.86-.56,14.27.41,7.4-5.56,8.12-14.61,6.63-17.97,0,0-9.27,1.72-12.34,10.72Z"/>
          <path class="cls-1" d="M113.64,108.68c.31.22.67.45,1.15.74.8.27,2.25.51,2.72.54,8.74.74,15.57-6.23,16.53-9.8,0,0-7.98-4.34-15.9.27-1.71-9.35-10.63-12.42-10.63-12.42-1.98,3.13-2.6,12.31,4.06,18.91.84.83,1.35,1.27,2.07,1.76Z"/>
          <path class="cls-1" d="M126.67,83.94c11.47.2,15.46-11.3,14.61-15.16,0,0-13.59-.27-14.61,15.16Z"/>
          <path class="cls-1" d="M125.08,87.11c-.36-9.5-8.76-13.8-8.76-13.8-2.41,2.82-4.33,11.81,1.33,19.29.71.94,1.16,1.45,1.8,2.04.27.26.6.54,1.03.9.75.38,2.15.82,2.61.92,8.54,1.98,16.3-3.95,17.76-7.35,0,0-7.28-5.43-15.77-1.99Z"/>
          <path class="cls-1" d="M104.93,125.63c1.24,6.62,15.27,21.38,33.37,12.33-11.96-23.1-33.37-12.33-33.37-12.33Z"/>
          <path class="cls-1" d="M108.29,122.04c3.41-.97,8.68-1.84,14.27-.41,4.24-2.78,6.84-7.03,7.12-9.45,0,0-8.53-3.12-15.68,2.61-3.07-9-12.34-10.72-12.34-10.72-1.49,3.37-.77,12.42,6.63,17.97Z"/>
        </g>
      </g>
    </symbol>
  </defs>
  <use width="293.06" height="276.67" transform="scale(1.63)" xlink:href="#Logo_v1"/>
</svg>