<?xml version="1.0" encoding="iso-8859-1"?>
<!-- Uploaded to: SVG Repo, www.svgrepo.com, Generator: SVG Repo Mixer Tools -->
<svg version="1.1" id="Layer_1" xmlns="http://www.w3.org/2000/svg" xmlns:xlink="http://www.w3.org/1999/xlink" 
	 viewBox="0 0 512.933 512.933" xml:space="preserve">
<g transform="translate(1 1)">
	<path style="fill:#FCC309;" d="M316.907,379.2v17.067h-122.88V379.2H33.6v25.6c0,9.387,6.827,17.067,15.36,17.067h413.013
		c8.533,0,15.36-7.68,15.36-17.067v-25.6H316.907z"/>
	<path style="fill:#FFFFFF;" d="M33.6,404.8v-25.6H8v25.6c0,9.387,7.68,17.067,17.067,17.067H48.96
		C40.427,421.867,33.6,414.187,33.6,404.8"/>
	<path style="fill:#FD9808;" d="M477.333,379.2v25.6c0,9.387-6.827,17.067-15.36,17.067h23.893c9.387,0,17.067-7.68,17.067-17.067
		v-25.6H477.333z"/>
	<path style="fill:#FFDD09;" d="M187.2,379.2v17.067h136.533V379.2H443.2V106.133c0-9.387-6.827-17.067-15.36-17.067H83.093
		c-8.533,0-15.36,7.68-15.36,17.067V379.2H187.2z"/>
	<path style="fill:#FFFFFF;" d="M83.093,89.067H59.2c-9.387,0-17.067,7.68-17.067,17.067V379.2h25.6V106.133
		C67.733,96.747,74.56,89.067,83.093,89.067"/>
	<path style="fill:#FD9808;" d="M451.733,89.067H427.84c8.533,0,15.36,7.68,15.36,17.067V379.2h25.6V106.133
		C468.8,96.747,461.12,89.067,451.733,89.067"/>
	<path style="fill:#FFDD09;" d="M477.333,89.067H453.44c8.533,0,15.36,7.68,15.36,17.067V379.2h25.6V106.133
		C494.4,96.747,486.72,89.067,477.333,89.067"/>
	<path d="M323.733,405.267H187.2c-4.971,0-9-4.029-9-9V388.2H42.133c-4.971,0-9-4.029-9-9V328c0-4.971,4.029-9,9-9s9,4.029,9,9v42.2
		H187.2c4.971,0,9,4.029,9,9v8.066h118.533V379.2c0-4.971,4.029-9,9-9H459.8V106.133c0-4.448-3.618-8.067-8.066-8.067H59.2
		c-4.448,0-8.067,3.619-8.067,8.067v153.601c0,4.971-4.029,9-9,9s-9-4.029-9-9V106.133c0-14.374,11.694-26.067,26.067-26.067
		h392.533c14.373,0,26.066,11.693,26.066,26.067V379.2c0,4.971-4.029,9-9,9H332.733v8.066
		C332.733,401.238,328.704,405.267,323.733,405.267z"/>
	<path d="M50.667,293.867c0-5.12-3.413-8.533-8.533-8.533s-8.533,3.413-8.533,8.533s3.413,8.533,8.533,8.533
		S50.667,298.987,50.667,293.867"/>
	<polygon style="fill:#1CD759;" points="229.867,182.933 281.067,182.933 281.067,131.733 229.867,131.733 	"/>
	<g>
		<path style="fill:#54C9FD;" d="M161.6,302.4c0,18.773-15.36,34.133-34.133,34.133s-34.133-15.36-34.133-34.133
			s15.36-34.133,34.133-34.133S161.6,283.627,161.6,302.4"/>
		<path style="fill:#54C9FD;" d="M289.6,302.4c0,18.773-15.36,34.133-34.133,34.133s-34.133-15.36-34.133-34.133
			s15.36-34.133,34.133-34.133S289.6,283.627,289.6,302.4"/>
		<path style="fill:#54C9FD;" d="M417.6,302.4c0,18.773-15.36,34.133-34.133,34.133s-34.133-15.36-34.133-34.133
			s15.36-34.133,34.133-34.133C402.24,268.267,417.6,283.627,417.6,302.4"/>
	</g>
	<g>
		<path d="M290.067,191.933h-69.2v-69.2h69.2V191.933z M238.867,173.933h33.2v-33.2h-33.2L238.867,173.933L238.867,173.933z"/>
		<rect x="246.47" y="182.93" width="18" height="85.33"/>
		<polygon points="392.467,274.24 374.467,274.24 374.467,243.133 136.467,243.133 136.467,274.24 118.467,274.24 118.467,225.133 
			392.467,225.133 		"/>
		<path d="M127.467,345.533c-23.784,0-43.133-19.35-43.133-43.133c0-23.784,19.349-43.134,43.133-43.134S170.6,278.616,170.6,302.4
			C170.6,326.184,151.25,345.533,127.467,345.533z M127.467,277.267c-13.858,0-25.133,11.275-25.133,25.134
			s11.274,25.133,25.133,25.133S152.6,316.26,152.6,302.401S141.325,277.267,127.467,277.267z"/>
		<path d="M255.467,345.533c-23.784,0-43.133-19.35-43.133-43.133c0-23.784,19.349-43.134,43.133-43.134
			c23.783,0,43.133,19.35,43.133,43.134S279.25,345.533,255.467,345.533z M255.467,277.267c-13.858,0-25.133,11.275-25.133,25.134
			s11.274,25.133,25.133,25.133S280.6,316.26,280.6,302.401S269.325,277.267,255.467,277.267z"/>
		<path d="M383.467,345.533c-23.783,0-43.133-19.35-43.133-43.133c0-23.784,19.35-43.134,43.133-43.134S426.6,278.616,426.6,302.4
			S407.25,345.533,383.467,345.533z M383.467,277.267c-13.858,0-25.133,11.275-25.133,25.134s11.274,25.133,25.133,25.133
			S408.6,316.26,408.6,302.401S397.325,277.267,383.467,277.267z"/>
		<path d="M485.867,430.867h-460.8C10.693,430.867-1,419.174-1,404.8v-25.6c0-4.971,4.029-9,9-9h179.2c4.971,0,9,4.029,9,9v8.066
			h118.533V379.2c0-4.971,4.029-9,9-9h179.2c4.971,0,9,4.029,9,9v25.6C511.934,419.174,500.24,430.867,485.867,430.867z M17,388.2
			v16.6c0,4.448,3.619,8.067,8.067,8.067h460.8c4.448,0,8.066-3.619,8.066-8.067v-16.6h-161.2v8.066c0,4.971-4.029,9-9,9H187.2
			c-4.971,0-9-4.029-9-9V388.2H17z"/>
	</g>
</g>
</svg>