<?xml version="1.0" encoding="UTF-8"?>
<svg id="Layer_5" data-name="Layer 5" xmlns="http://www.w3.org/2000/svg" width="1076.44" height="1080.62" viewBox="0 0 1076.44 1080.62">
  <defs>
    <style>
      .cls-1 {
        fill: #5014d0;
      }

      .cls-1, .cls-2 {
        stroke-width: 0px;
      }

      .cls-2 {
        fill: #151458;
      }
    </style>
  </defs>
  <g>
    <path class="cls-2" d="M1035.03,340.66l-29.79,25c-27.97-65.63-69.24-125.7-122.48-177.06-21.18-20.44-43.78-39.04-67.67-55.72l26.76-22.45c49.03-41.15,122.13-34.75,163.27,14.28l44.2,52.68c41.14,49.03,34.75,122.13-14.29,163.27Z"/>
    <path class="cls-2" d="M60.26,257.09c-13.58,18.75-25.89,38.19-36.9,58.2-31.85-42.13-31.64-102.12,3.76-144.3l44.2-52.68c40.57-48.35,112.21-55.24,161.21-15.97-66.81,37.89-125.67,90.42-172.27,154.75Z"/>
    <path class="cls-2" d="M264.66,141.71l-187.05,222.93-16.5-13.84c45.27-87.59,116.02-161.43,203.55-209.09Z"/>
  </g>
  <path class="cls-2" d="M632.19,101.16l-25.72,61.55c14.16,4.55,28.03,9.83,41.56,15.82l18.06-66.64c-11.14-3.97-22.45-7.55-33.9-10.73ZM997.84,576.07c.05-207.76-128.55-378.89-303.64-453.22l-18.7,69.01c134,71.05,228.87,212.77,229.09,384.21-1.59,302.21-298.49,510.55-582.66,401.5-164.97-62.23-278.61-224.58-277.64-401.5-1.64-177.3,111.43-340.79,276.72-403.72,87.3-33.73,175.69-37.52,256.37-17.85l25.32-60.58c-67.16-14.35-138.5-15.11-210.27.45-45.45,9.69-88.3,25.84-127.75,47.33,0,0-.01,0-.01.01h-.01c-87.53,47.66-158.28,121.5-203.55,209.09C18.63,432.99-1.38,527.28,8.31,623.32c10.84,112.98,57.37,211.47,126.3,287.16,31.37,34.46,67.4,64.19,106.82,88.41,125.21,76.98,284.64,98.35,438.09,39,29.69-11.27,57.92-25.33,84.41-41.81,40.57-25.22,77.06-56.11,108.49-91.34,79.3-88.92,126.37-205.52,125.42-328.67Z"/>
  <polygon class="cls-2" points="898.72 1062.76 867.79 1080.62 804.72 1029.28 763.93 996.08 743.3 979.29 872.42 904.74 873.2 904.29 883.11 965.85 898.72 1062.76"/>
  <path class="cls-2" d="M633.62,231.69l-97.74,360.72-37.67-12.91-29.96-10.27-.15,31.66-.12,25.93-251.64-40.8.1-21.07,202.33-30.87,34.73-5.3,13.54-32.41,118.56-283.73c15.58,4.92,30.86,10.91,45.71,17.97.77.36,1.54.72,2.31,1.08Z"/>
  <path class="cls-2" d="M849.74,566.05c-2.69-129.91-76.58-254.56-188.91-320.04l-104.38,385.17-58.39-20.02-.24,50.89-311.6-50.52.34-72.37,245.75-37.49,54.94-131.47h-11.59l-12.76-100h50l-7.09,55.59,50.6-121.09c-53.1-12.15-108.76-12.71-162.52-2.54-43.74,8.27-86.23,23.64-125.05,45.64-118.6,66.41-194.02,191.78-193.49,328.27-.52,136.5,74.88,261.84,193.49,328.27,64.76,36.7,139.73,54.94,213.73,52.55.05.01.1.01.15,0,51.23-1.66,102-13.2,148.59-35.36,79.53-36.87,143.02-102.39,180.64-180.31,24.46-46.89,38.28-100.21,38.28-156.76,0-6.18-.16-12.32-.49-18.41ZM463.68,885.55l12.76-100h24.48l12.76,100h-50ZM811.03,591.38l-100-12.76v-24.48l100-12.76v50Z"/>
  <polygon class="cls-2" points="265.51 979.29 241.43 998.89 200.54 1032.18 141.03 1080.62 110.1 1062.76 124.73 971.86 134.61 910.48 135.61 904.29 265.51 979.29"/>
  <g id="Hand_expanded" data-name="Hand expanded">
    <polygon class="cls-1" points="468.45 526.5 468.25 569.23 468.1 600.89 467.98 626.82 216.34 586.02 216.44 564.95 418.77 534.08 453.5 528.78 468.45 526.5"/>
    <polygon class="cls-1" points="694.54 6.88 679.2 63.49 666.09 111.89 648.03 178.53 634.77 227.46 633.62 231.69 535.88 592.41 498.21 579.5 468.25 569.23 440.56 559.74 453.5 528.78 467.04 496.37 585.6 212.64 587.12 209.01 606.47 162.71 632.19 101.16 651.61 54.67 674.46 0 694.54 6.88"/>
  </g>
</svg>