<?xml version="1.0" encoding="UTF-8"?>
<svg id="Layer_1" data-name="Layer 1" xmlns="http://www.w3.org/2000/svg" version="1.1" viewBox="0 0 2182.7 443.2">
  <defs>
    <style>
      .cls-1 {
        isolation: isolate;
      }

      .cls-2 {
        fill: #dd1f26;
      }

      .cls-2, .cls-3 {
        stroke-width: 0px;
      }

      .cls-3 {
        fill: #202020;
      }
    </style>
  </defs>
  <g>
    <rect class="cls-3" width="119.3" height="443.2" rx="29.8" ry="29.8"/>
    <rect class="cls-3" x="340.7" width="119.3" height="443.2" rx="29.8" ry="29.8"/>
    <path class="cls-2" d="M247.1,279.8l55.8-96.6c7.6-13.2-1.9-29.8-17.2-29.8h-111.5c-15.3,0-24.8,16.6-17.2,29.8l55.8,96.6c7.6,13.2,26.7,13.2,34.4,0h0,0Z"/>
  </g>
  <g class="cls-1">
    <g class="cls-1">
      <g class="cls-1">
        <path class="cls-2" d="M875.8,387.3v-211.7c-1.9,12.8-5.7,28.4-11.4,46.4l-2.8,9.9-45,155.3h-60.1l-45-155.3c-.9-2.4-1.9-5.7-2.8-9.9-5.7-18-9.5-33.6-11.8-46.4v211.7h-91.4V55.4h120.3l50.2,171.4c0,.9.9,2.8,1.9,5.7,4.3,15.2,7.6,28.4,8.5,39.3,1.4-10.9,4.3-24.1,9-39.3l1.9-5.7,50.2-171.4h119.8v331.9h-91.4Z"/>
        <path class="cls-2" d="M1000.3,294.1v-73.9h153.9v73.9h-153.9Z"/>
        <path class="cls-2" d="M1187.4,55.9h232l-39.3,74.3h-104.2v57.8h100.4l-32.7,67.7h-67.7v132.1h-88.5V55.9Z"/>
        <path class="cls-2" d="M1452.6,387.8V55.9h88.1v257.6h143.5v74.3h-231.6Z"/>
        <path class="cls-2" d="M1717.3,387.8V55.9h91.4v331.9h-91.4Z"/>
        <path class="cls-2" d="M2012.3,160.1l51.1-104.2h107.5l-100.4,159.6,112.2,172.4h-102.8l-67.7-126-67.7,126h-102.8l112.2-174.3-100.4-157.7h107.5l51.1,104.2Z"/>
      </g>
    </g>
  </g>
</svg>