<?xml version="1.0" encoding="UTF-8"?>
<svg id="Layer_1" xmlns="http://www.w3.org/2000/svg" width="1297" height="241.62" viewBox="0 0 1297 241.62">
  <defs>
    <style>
      .cls-1, .cls-2 {
        fill: #010101;
      }

      .cls-2 {
        font-family: Magistral-Medium, Magistral;
        font-size: 57.07px;
        font-weight: 500;
        letter-spacing: .85em;
      }
    </style>
  </defs>
  <text class="cls-2" transform="translate(464.74 48.51) scale(1.03 1)"><tspan x="0" y="0">MILES</tspan></text>
  <path class="cls-1" d="M1093.59,184.62l-55.8-18.12c-6.23-2.08-11.12-5.07-14.8-8.88-3.78,10.43-9.63,19.97-19.78,25.71l-3.57,14.89h92.52c4.06,0,10.73-.96,10.73-6.44,0-4.05-4.29-5.48-9.3-7.16ZM542.65,205.37h-59.14l-20.27,34.34h85.85l-6.44-34.34ZM247.52,205.37h-59.14l-20.27,34.34h85.85l-6.44-34.34ZM1080.24,114.28c-4.06,0-12.88,0-12.88,6.44,0,5.96,8.11,6.67,12.4,8.1l48.41,15.03c2.28.71,4.43,1.46,6.44,2.27l6.77-31.84h-61.14ZM1205.91,113.33h82.51l8.58-40.54h-120.66c-.81,0-1.61.02-2.39.05l-8.82,41.44h-23.75l-6.77,31.84c16.34,6.53,24.08,16.54,24.08,33.74,0,5-.95,12.87-2.14,18.6-4.37,20.95-11.29,33.33-27.77,38.46,3.18,1.78,7.2,2.79,12.03,2.79h121.61l8.59-40.54h-83.46c-5.72,0-8.59-2.14-8.59-6.68,0-1.19.24-2.38.48-3.81l3.34-15.74h91.09l7.87-36.72h-91.09l2.62-12.4c1.43-7.16,5.49-10.49,12.64-10.49ZM783.5,113.33c-7.16,0-11.21,3.33-12.64,10.49l-2.62,12.4h91.09l-7.87,36.72h-91.09l-3.34,15.74c-.24,1.43-.48,2.62-.48,3.81,0,4.54,2.86,6.68,8.58,6.68h80.88l18.34-85.84h-80.85ZM1014.13,137.69c-.28-2.3-.42-4.69-.42-7.19,0-5.25.72-13.12,1.91-18.6,1.98-9.5,4.78-17.25,9.01-23.26-6.33-10-17.89-15.85-36.09-15.85h-89.42c-12.68,0-22.33,5.5-27.81,15.46-1.73,3.15-3.04,6.75-3.91,10.77l-3.05,14.31-18.34,85.84-8.65,40.54h53.89l24.56-114.94c1.43-7.15,5.49-10.49,12.64-10.49h30.76c11.45,0,16.22,2.38,16.22,10.49,0,2.15-.24,4.77-.95,7.63-3.11,14.31-8.83,18.84-23.14,18.84h-8.1c-14.31,0-25.04,4.53-28.14,18.84l-.72,3.58c-.24,1.67-.48,3.1-.48,4.76,0,7.64,2.39,10.26,7.16,17.89l27.66,43.4h42.33l4.08-19.72-20.89-30.12.24-.95h4.76c9.94,0,17.76-2.09,23.97-5.59,10.15-5.74,16-15.28,19.78-25.71-5.04-5.19-7.85-11.9-8.86-19.92h0ZM867.4,99.02l-3.05,14.31h1.65l5.31-25.08c-1.73,3.15-3.04,6.75-3.91,10.77ZM846.01,199.17l-8.65,40.54h2.65l8.59-40.54h-2.59ZM709.81,72.79l-63.19,113.27c-1.43,2.62-2.86,3.57-4.05,3.57s-1.91-.95-2.15-3.57l-15.02-113.27h-55.33l27.67,141.88c2.86,14.55,10.01,26.95,36.24,26.95s38.63-12.16,47.7-26.95l24.24-38.98,16.29-76.67c3.58-16.7,12.64-26.23,31.72-26.23h-44.12ZM530.97,125.01c-.24-1.19-.72-3.58-1.43-3.58s-2.15,2.15-2.87,3.58l-23.36,42.21h34.09l-6.43-42.21ZM416.59,72.79h-89.42c-16.7,0-28.14,9.53-31.72,26.23l-8.57,40.13,20.5,100.56h11.92l24.56-114.94c1.43-7.15,5.48-10.49,12.64-10.49h30.76c11.44,0,16.22,2.38,16.22,10.49,0,2.15-.24,4.77-.96,7.63-3.1,14.31-8.83,18.84-23.13,18.84h-8.11c-14.31,0-25.04,4.53-28.14,18.84l-.71,3.58c-.24,1.67-.48,3.1-.48,4.76,0,7.64,2.39,10.26,7.15,17.89l27.67,43.4h26.14l15.88-26.04-16.51-23.8.24-.95h4.77c38.15,0,45.07-30.76,49.6-54.61,1.43-7.39,1.91-14.31,1.91-20.75,0-24.56-11.93-40.77-42.21-40.77ZM235.84,125.01c-.24-1.19-.72-3.58-1.44-3.58s-2.14,2.15-2.86,3.58l-23.37,42.21h34.11l-6.44-42.21ZM151.66,72.79H61.76c-16.69,0-28.14,9.53-31.72,26.23L0,239.71h53.89l10.25-48.17h67.01c2.11,0,4.13-.04,6.08-.12l54.75-89.74c-3.59-17.87-15.73-28.89-40.32-28.89ZM135.68,134.31c-3.81,14.07-10.49,15.74-24.8,15.74h-37.91l5.48-25.28c1.43-7.15,5.48-10.49,12.64-10.49h27.42c11.92,0,18.36,2.38,18.36,11.45,0,1.9-.47,6.2-1.19,8.58Z"/>
</svg>