<?xml version="1.0" encoding="UTF-8"?>
<svg id="Layer_2" data-name="Layer 2" xmlns="http://www.w3.org/2000/svg" xmlns:xlink="http://www.w3.org/1999/xlink" viewBox="0 0 151.18 35">
  <defs>
    <style>
      .cls-1 {
        fill: url(#linear-gradient-2);
      }

      .cls-2 {
        fill: #fff;
      }

      .cls-3 {
        fill: url(#linear-gradient-4);
      }

      .cls-4 {
        fill: url(#linear-gradient-3);
      }

      .cls-5 {
        fill: url(#linear-gradient-5);
      }

      .cls-6 {
        fill: #33ab4a;
      }

      .cls-7 {
        fill: url(#linear-gradient-6);
      }

      .cls-8 {
        fill: #008249;
      }

      .cls-9 {
        fill: url(#linear-gradient);
      }
    </style>
    <symbol id="Lettermark_black" viewBox="0 0 869.05 233.14">
      <g>
        <path class="cls-6" d="M867.59,9.39v43.64h-115.79c-.24,0-1.04.73-1.64.47v42s1.09,1.18,1.18,1.18h102.16v42.93s-.64.71-.71.71h-101.45c-.16,0-.71.62-1.18.47v42.93s1.09,1.18,1.18,1.18h116.97s.71.64.71.71v40.83c0,.47.29,2.58-.71,2.58h-165.81s-.71-.64-.71-.71V9.39h165.81Z"/>
        <g>
          <path class="cls-6" d="M500.25,9.39h104.07c34.5.47,68.18,15.1,77.28,50.42,7.81,30.28.78,63.51-25.75,81.89-5.42,3.75-11.21,5.95-16.98,9.15l52.08,77.65-2.55.49-54.74-.24c-3.73-4.95-6.88-10.28-10.35-15.36-11.14-16.34-22.4-33.17-33.77-49.55-.95-1.35-2.24-3.66-2.86-5.24h-36.63c.16.47-.47,1.02-.47,1.18v68.51s-.64.71-.71.71h-47.91s-.71-.64-.71-.71V9.37h0v.02ZM549.58,53.5v61.94c1.86-.31,3.62.38,5.37.49,15.34.91,35.45.49,50.68-1.02,21.33-2.13,34.32-21.07,27.31-41.71-4.88-14.39-20.29-17.85-33.32-19.74h-50.06v.04h.02Z"/>
          <path class="cls-6" d="M260.94,228.99c-1-.31-.6-1.58-.4-2.26,1.64-5.24,5.26-11.34,7.44-16.52,27.33-65.11,54.57-130.09,82.87-194.65.91-2.06,1.71-7.37,4.02-7.64l44.31.13c.49.29,2.64,6.68,3.15,7.88,25.86,59.47,50.95,119.35,76.3,179.04,3.93,9.26,8.5,18.71,12.17,27.82.33.82,3.09,6.17,1.24,6.17h-50.26l-20.76-48.82h-90.11l-21.13,48.82h-48.86l.02.02ZM348.07,137.02h55.43l-27.48-67.58-27.95,67.58Z"/>
        </g>
        <path class="cls-6" d="M240.31,19.91c6.08,3.33,13.99,9.06,18.98,13.63,2.18,1.98,4.28,4.42,6.08,6.55l-30.41,34.99c-.36.24-.78.42-1.22.38-1.04-.13-9.24-7.5-10.99-8.79-25.77-18.8-57.7-22.55-83.47-1.89-15.05,12.08-21.6,30.1-24.22,48.99-.64,4.57.31,11.88.98,16.45,3.93,27.48,22.64,51.21,51.01,56.5,25.53,4.75,45.93-5.53,64.53-21.31.69-.58,3.04-3.69,3.93-3.46,2.66,1.13,3.46,3.37,5.22,5.15s3.6,3.6,5.39,5.39c5.39,5.39,14.41,12.68,18.76,18.34.27.36,1.82,2.69,1.84,2.84.29,1.4-7.19,7.39-8.28,9.06-41.4,39.54-115.11,40.89-158.19,1.91-51.75-46.82-47.73-136.08,8.59-177.38C145.01.75,201.24-1.38,240.31,19.94h0v-.02Z"/>
        <g>
          <rect class="cls-8" x="1.4" y="60.54" width="48.37" height="168.45"/>
          <rect class="cls-8" width="51.19" height="43.18"/>
        </g>
      </g>
    </symbol>
    <linearGradient id="linear-gradient" x1="132.48" y1="16384" x2="132.48" y2="16436.7" gradientTransform="translate(0 16613.23) scale(1 -1)" gradientUnits="userSpaceOnUse">
      <stop offset=".03" stop-color="#008249"/>
      <stop offset=".11" stop-color="#0b8b49"/>
      <stop offset=".3" stop-color="#219c49"/>
      <stop offset=".49" stop-color="#2ea749"/>
      <stop offset=".66" stop-color="#33ab4a"/>
    </linearGradient>
    <linearGradient id="linear-gradient-2" x1="53.95" y1="16423.82" x2="53.95" y2="16454.56" xlink:href="#linear-gradient"/>
    <linearGradient id="linear-gradient-3" x1="216.2" y1="16459.01" x2="216.2" y2="16472.12" xlink:href="#linear-gradient"/>
    <linearGradient id="linear-gradient-4" x1="211.31" y1="16423.82" x2="211.31" y2="16454.56" xlink:href="#linear-gradient"/>
    <linearGradient id="linear-gradient-5" x1="49.06" y1="16459.01" x2="49.06" y2="16472.12" xlink:href="#linear-gradient"/>
    <linearGradient id="linear-gradient-6" x1="132.48" y1="16426.86" x2="132.48" y2="16613.23" xlink:href="#linear-gradient"/>
    <symbol id="Logomark" viewBox="0 0 264.95 229.23">
      <g id="HEART_LOGO_APPROVED_1" data-name="HEART LOGO APPROVED 1">
        <g>
          <g>
            <polygon class="cls-9" points="176.83 176.55 176.83 194.09 159.57 194.09 159.57 211.95 141.71 211.95 141.71 229.23 123.24 229.23 123.24 211.95 105.99 211.95 105.99 194.09 88.12 194.09 88.12 176.53 92.53 176.55 92.55 179.31 100.03 179.31 100.03 181.52 105.34 181.52 105.34 184.36 110.13 184.36 110.13 186.58 112.36 186.58 112.36 189 114.79 189 114.79 191.63 150.78 191.63 150.78 189 153.2 189 153.2 186.58 155.41 186.58 155.41 184.36 160.22 184.36 160.22 181.52 165.54 181.52 165.54 179.31 173.01 179.31 173.03 176.55 176.83 176.55"/>
            <polygon class="cls-1" points="88.12 176.53 57.98 176.47 57.26 176.47 57.26 179.31 45.44 179.31 45.44 181.92 37.96 181.92 37.96 184.36 30.28 184.36 30.28 186.58 22.62 186.58 22.62 189.41 19.78 189.41 19.78 181.32 22.39 181.32 22.39 173.84 24.83 173.84 24.83 168.79 27.46 168.79 27.46 166.16 34.93 166.16 34.93 163.74 39.99 163.74 39.99 161.3 47.46 161.3 47.46 158.67 52.99 158.67 88.12 176.53"/>
            <polygon class="cls-4" points="220.43 148.77 220.43 154.22 217.59 154.22 217.59 151.61 211.97 151.61 211.97 141.11 215.28 141.11 215.28 142 217.8 142 217.8 148.77 220.43 148.77"/>
            <polygon class="cls-3" points="245.78 181.32 245.78 189.41 242.95 189.41 242.95 186.58 235.28 186.58 235.28 184.36 227.6 184.36 227.6 181.92 220.11 181.92 220.11 179.31 208.3 179.31 208.3 176.47 207.58 176.47 176.83 176.55 211.97 158.67 218.1 158.67 218.1 161.3 225.57 161.3 225.57 163.74 230.63 163.74 230.63 166.16 238.1 166.16 238.1 168.79 240.73 168.79 240.73 173.84 243.17 173.84 243.17 181.32 245.78 181.32"/>
            <polygon class="cls-5" points="52.99 141.11 52.99 151.61 47.97 151.61 47.97 154.22 45.13 154.22 45.13 148.77 47.76 148.77 47.76 142 50.26 142 50.26 141.11 52.99 141.11"/>
            <path class="cls-7" d="M247.69,35.71v-17.86h-17.86V0h-72.05v17.85h-17.85v17.86h-16.69v-17.86h-17.86V0H35.12v17.85h-17.25v17.86H0v70.26h17.87v17.27h17.25v17.87h15.14v-7.04h2.65v-2.9h9.42v2.9h8.08v2.17h7.48v2.6h.6l6.87.03c.19.17-.32,2.29.3,2.63h4.75v2.43h4.87v2.42h5.05v2.63h2.42c.06.24-.02,2,.02,2.42h5.17l-.04,2.44h2.33v2.4h2.63v2.65l2.44-.02v2.63h-2.6v-2.42h-5.09v-2.63h-7.49v-2.42h-9.89c-.12-.78.28-1.84-.31-2.42h-36.93v7.06h6.81v-2.43h28.1v2.05h.94v.38h9.16v2.63h6.89v2.44h1.32l4.15.07v2.56l2.4-.02v2.44h2.65l.04,2.42h4.8v2.63h2.63l.02,2.33h2.41v2.72h2.63v4.66h2.42v2.82h4.84v-2.82h2.42v-4.66h2.64v-2.72h2.4l.02-2.33h2.63v-2.63h4.8l.04-2.42h2.65l-.02-2.44,2.42.02v-2.56l4.15-.07h1.3v-2.44h6.89v-2.63h8.7v-.29h1.42v-2.14h28.1v2.43h6.21v-7.06h-36.33c-.59.58-.19,1.64-.3,2.42h-9.9v2.42h-7.49v2.63h-5.09v2.42h-2.6v-2.63l2.43.02.02-2.65h2.63v-2.4h2.32l-.03-2.44h5.16c.04-.42-.04-2.18.02-2.42h2.42v-2.63h5.05v-2.42h4.85v-2.43h4.77c.62-.34.11-2.46.28-2.63l6.89-.03h.6v-2.6h7.48v-2.17h8.08v-2.9h9.42v2.9h2.63v7.04h14.55v-17.28h17.86v-17.86h17.26V35.71h-17.26ZM125.4,159.08h-3.05l.02-2.63h-2.23v-2.31h-3.03v-2.55h-4.65v-2.42h-2.42v-2.63h-2.44v-2.42h-4.66v-2.45h-3.01v-2.4h-4.86v-2.84h-4.96c-.06-.41,0-1.47-.04-2.21h-5.11v-2.63h-7.28v-2.42h-4.75s-.02-.04-.04-.06v-2.78h2.37v-7.48h2.42v-5.05h2.42v-7.49h2.63v2.63h5.05v2.23h2.63v2.63h4.87v2.61h2.63v2.44h2.42v2.63h2.63v2.22h2.42v2.63h2.42v2.63h2.44v2.21h2.62v5.05h2.44v2.98h2.59l.02,4.27v.55h2.63v4.75h2.42v7.47h2.44v2.84h0ZM192.67,129.11s-.02.04-.04.06h-4.75v2.42h-7.28v2.63h-5.11c-.04.74.02,1.8-.04,2.21h-4.96v2.84h-4.86v2.39h-3.01v2.46h-4.67l.02,2.42h-2.44v2.63h-2.43v2.42h-4.65v2.55h-3.03v2.31h-2.23v2.63h-3.03v-2.84h2.42v-7.47h2.42v-4.75h2.65v-.55l.02-4.27h2.59v-2.98h2.45v-5.05h2.63l-.02-2.21h2.44v-2.63h2.42v-2.63h2.42v-2.23h2.63v-2.62h2.42v-2.44h2.63v-2.61h4.85v-2.63h2.63v-2.23h5.07l-.02-2.63h2.63v7.49h2.44v5.05h2.42v7.48h2.37v2.78h0ZM216.74,77.4v13.09h-13.11v-11.9h-5.36v5.35h-6.55v-43.46h6.55v6.56h5.96v5.95h5.96v.3l-.02,5.66h3.29l3.28-.02v2.98l-.02,2.98h5.96v7.15h-10.12v5.36s4.18,0,4.18,0Z"/>
            <path class="cls-2" d="M192.67,126.33v2.78s-.02.04-.04.06h-4.75v2.42h-7.28v2.63h-5.11c-.04.74.02,1.8-.04,2.21h-4.96v2.84h-4.86v2.39h-3.01v2.46h-4.67l.02,2.42h-2.44v2.63h-2.43v2.42h-4.65v2.55h-3.03v2.31h-2.23v2.63h-3.03v-2.84h2.42v-7.47h2.42v-4.75h2.65v-.55l.02-4.27h2.59v-2.98h2.45v-5.05h2.63l-.02-2.21h2.44v-2.63h2.42v-2.63h2.42v-2.23h2.63v-2.62h2.42v-2.44h2.63v-2.61h4.85v-2.63h2.63v-2.23h5.07l-.02-2.63h2.63v7.49h2.44v5.05h2.42v7.48h2.37,0Z"/>
            <path class="cls-2" d="M215.28,134.07v7.04h-3.31v10.5h-36.33c-.59.58-.19,1.64-.3,2.42h-9.9v2.42h-7.49v2.63h-5.09v2.42h-2.6v-2.63l2.43.02.02-2.65h2.63v-2.4h2.32l-.03-2.44h5.16c.04-.42-.04-2.18.02-2.42h2.42v-2.63h5.05v-2.42h4.85v-2.43h4.77c.62-.34.11-2.46.28-2.63l6.89-.03h.6v-2.6h7.48v-2.17h8.08v-2.9h9.42v2.9h2.63,0Z"/>
            <polygon class="cls-2" points="211.97 158.67 176.83 176.55 173.03 176.55 173.01 179.31 165.54 179.31 165.54 181.52 160.22 181.52 160.22 184.36 155.41 184.36 155.41 186.58 153.2 186.58 153.2 189 150.78 189 150.78 191.63 114.79 191.63 114.79 189 112.36 189 112.36 186.58 110.13 186.58 110.13 184.36 105.34 184.36 105.34 181.52 100.03 181.52 100.03 179.31 92.55 179.31 92.53 176.55 88.12 176.53 52.99 158.67 59.8 158.67 59.8 156.24 87.9 156.24 87.9 158.29 88.84 158.29 88.84 158.67 98 158.67 98 161.3 104.89 161.3 104.89 163.74 106.21 163.74 110.36 163.81 110.36 166.37 112.76 166.35 112.76 168.79 115.41 168.79 115.45 171.21 120.25 171.21 120.25 173.84 122.88 173.84 122.9 176.17 125.31 176.17 125.31 178.89 127.94 178.89 127.94 183.55 130.36 183.55 130.36 186.37 135.2 186.37 135.2 183.55 137.62 183.55 137.62 178.89 140.26 178.89 140.26 176.17 142.66 176.17 142.68 173.84 145.31 173.84 145.31 171.21 150.11 171.21 150.15 168.79 152.8 168.79 152.78 166.35 155.2 166.37 155.2 163.81 159.35 163.74 160.65 163.74 160.65 161.3 167.54 161.3 167.54 158.67 176.24 158.67 176.24 158.38 177.66 158.38 177.66 156.24 205.76 156.24 205.76 158.67 211.97 158.67"/>
            <path class="cls-2" d="M115.3,158.87v2.63h-2.6v-2.42h-5.09v-2.63h-7.49v-2.42h-9.89c-.12-.78.28-1.84-.31-2.42h-36.93v-10.5h-2.73v-7.04h2.65v-2.9h9.42v2.9h8.08v2.17h7.48v2.6h.6l6.87.03c.19.17-.32,2.29.3,2.63h4.75v2.43h4.87v2.42h5.05v2.63h2.42c.06.24-.02,2,.02,2.42h5.17l-.04,2.44h2.33v2.4h2.63v2.65l2.44-.02h0Z"/>
            <path class="cls-2" d="M125.4,156.24v2.84h-3.05l.02-2.63h-2.23v-2.31h-3.03v-2.55h-4.65v-2.42h-2.42v-2.63h-2.44v-2.42h-4.66v-2.45h-3.01v-2.4h-4.86v-2.84h-4.96c-.06-.41,0-1.47-.04-2.21h-5.11v-2.63h-7.28v-2.42h-4.75s-.02-.04-.04-.06v-2.78h2.37v-7.48h2.42v-5.05h2.42v-7.49h2.63v2.63h5.05v2.23h2.63v2.63h4.87v2.61h2.63v2.44h2.42v2.63h2.63v2.22h2.42v2.63h2.42v2.63h2.44v2.21h2.62v5.05h2.44v2.98h2.59l.02,4.27v.55h2.63v4.75h2.42v7.47h2.44Z"/>
          </g>
          <polygon id="_Path_CURSOR" data-name=" Path CURSOR" class="cls-2" points="191.72 40.48 198.28 40.48 198.27 47.04 204.23 47.03 204.23 52.99 210.19 52.98 210.18 58.94 216.73 58.94 216.73 64.9 222.69 64.89 222.69 72.04 212.56 72.04 212.56 77.4 216.73 77.4 216.73 90.5 203.63 90.5 203.63 78.59 198.27 78.59 198.28 83.95 191.72 83.95 191.72 40.48"/>
        </g>
      </g>
    </symbol>
  </defs>
  <g id="Layer_11" data-name="Layer 11">
    <g>
      <use width="869.05" height="233.14" transform="translate(52.86 5.27) scale(.11)" xlink:href="#Lettermark_black"/>
      <use width="264.95" height="229.23" transform="scale(.15)" xlink:href="#Logomark"/>
    </g>
  </g>
</svg>