<?xml version="1.0" encoding="UTF-8"?>
<svg id="Layer_4" data-name="Layer 4" xmlns="http://www.w3.org/2000/svg" viewBox="0 0 1946.91 411.89">
  <defs>
    <style>
      .cls-1 {
        fill: #ee4d2d;
      }
    </style>
  </defs>
  <path class="cls-1" d="M1616.85,169.05c4.8,2.1,10.09,3.26,15.66,3.26,1.41,0,2.81-.07,4.18-.22,19.7-2.09,35.05-18.76,35.05-39.01,0-21.67-17.56-39.23-39.23-39.23s-39.23,17.56-39.23,39.23c0,16.09,9.69,29.93,23.57,35.97ZM1649.63,114.2c4.37-1.5,9.5,1.87,11.45,7.54,1.94,5.66-.03,11.48-4.41,12.98s-9.5-1.87-11.45-7.54c-1.94-5.67.03-11.48,4.41-12.98Z"/>
  <path class="cls-1" d="M1462.15,311.57c-20.5-7.17-17.07-28.23-10.59-44.64,3.89-9.82,8.6-20.24,14.15-31.28,2.22-4.57,5.18-10.35,8.88-17.35,3.69-7,7.67-14.6,11.93-22.81,4.25-8.2,8.6-16.68,13.04-25.42,4.44-8.74,8.88-17.42,13.32-26.04,9.98-19.9,20.71-41.02,32.18-63.36h-22.2l-102.09,23.81v7.67c12.57,0,18.49,3.57,17.75,10.7s-4.99,18.23-12.76,33.29l-13.32,26.24c-3.7-6.73-9.98-10.09-18.86-10.09-16.65,0-33.85,4.3-51.6,12.91-17.76,8.62-33.95,19.92-48.55,33.9-14.29,13.68-26.09,28.96-35.42,45.85-11.43,15.4-24.02,30-40.6,39.29-5.8,3.25-12.25,5.84-18.89,5.48-6.63-.36-13.41-4.3-15.44-10.62-2.02-6.3.93-13.01,3.86-18.94,16.14-32.67,34.62-63.75,52.75-95.3l-30.35-1.64c-32.18,5.19-58.11,25.61-80.72,47.97-10.47,10.36-20.52,21.18-29.55,32.83-9.1,11.73-16.3,24.17-23.18,37.27-1.62-4.72,1.13-12.16,3.7-17.8-5.74-6.12-8.88-14.93-8.13-23.28.52-5.76,2.75-11.24,5.58-16.28,4.09-7.32,9.54-13.95,16.29-18.94,5.32-3.93,11.38-6.8,17.64-8.96,3.44-1.19,7-2.18,10.64-2.3,2.36-.08,4.76.23,6.98,1.06.31.11,2.74,1.44,4.08,2.04,8.7-7.71,18.71-14.86,28.4-20.48,5.47-3.17,22.36-11.28,35.75-13.8l-51.24-2.76c-17.88,0-35.58,4.36-53.11,13.06-28.23,14.02-53.94,36.19-71.33,63.27-5.56,6.74-11.31,13.24-17.28,19.47-6.85,7.13-14.43,13.39-22.75,18.77-14.02,9.06-28.56,13.22-44.76,16.52-16.45,3.35-33.6,5.35-50.15,1.47-6.38-1.5-12.85-4.05-17.07-9.07-3.21-3.81-4.83-8.72-5.72-13.63-2-11.1-.47-22.81,4.25-33.05,2.24-4.87,4.91-9.64,7.95-14.05,1.27-1.84,9.74-9.76,9.65-11.33.36,6.19,3.14,11.24,8.32,15.13,5.18,3.9,12.02,5.85,20.53,5.85,7.02,0,13.68-1.27,19.98-3.83,6.29-2.55,11.83-5.85,16.65-9.89,4.8-4.04,8.69-8.68,11.65-13.92,2.96-5.25,4.62-10.56,4.99-15.94,0-10.22-3.7-18.83-11.1-25.83-7.4-6.99-19.42-10.49-36.07-10.49-14.43,0-29.69,4.44-45.78,13.32-16.09,8.88-31.07,20.12-44.94,33.7-13.87,13.59-25.34,28.45-34.4,44.6-4.41,7.85-7.73,15.48-10,22.89-5.91,3-12.17,5.36-18.42,7.57-14.1,4.98-28.5,9.4-43.33,11.35-5.9.78-12.15,1.11-17.55-1.39-14.7-6.81-5.87-23.25,1.18-32.14,6.29-7.94,13.32-16.35,21.09-25.23,7.77-8.88,14.79-17.82,21.09-26.84,6.29-9.01,9.43-17.42,9.43-25.23,0-9.42-4.53-17.08-13.59-23-9.07-5.92-21-8.88-35.79-8.88-9.62,0-19.24.61-28.85,1.82-9.62,1.21-19.06,2.36-28.3,3.43.36-1.34.64-2.76.83-4.24.18-1.48.28-2.89.28-4.24,0-4.57-1.94-8.54-5.83-11.91-3.88-3.36-9.71-5.04-17.48-5.04s-14.06,1.35-19.98,4.04c-5.92,2.69-10.92,6.12-14.98,10.29-4.07,4.17-7.21,8.95-9.43,14.33-2.22,5.39-3.33,10.9-3.33,16.55s1.75,11.44,5.27,16.55c3.51,5.11,8.41,8.61,14.7,10.49-9.25,14.8-17.57,26.78-24.97,35.92l21.64,9.28,32.74-45.2c5.18-.54,10.26-1.07,15.26-1.61,4.99-.54,8.96-.81,11.93-.81,6.66,0,9.99,2.16,9.99,6.46,0,5.65-3.42,13.05-10.26,22.2-6.85,9.15-14.43,19.11-22.75,29.87-8.32,10.76-15.91,21.59-22.75,32.49-8.29,13.2-14.37,28.77-7.03,43.49,6.42,12.87,18.54,22.63,31.91,27.56,18.23,6.73,38.49,5.64,57.53,1.72,32.95-6.79,63.82-22.28,89.6-43.86.32,1.01.66,2,1.03,2.98,2.96,7.94,7.49,14.87,13.59,20.79,6.1,5.92,13.78,10.56,23.03,13.92,14.08,5.12,29.77,5.58,44.6,5.22,27.03-.62,53.9-6.9,78.47-18.16,20.67-9.47,37.85-22.2,53.38-37.84-.58,13.49,2.48,27.23,10.81,37.71,10.92,13.73,29.58,19.86,47.06,18.42s33.84-9.6,47.87-20.13c13.89,17.47,38.95,23.24,60.78,18.61,21.84-4.63,40.83-18.05,57.14-33.29,7.24-6.76,14.05-13.93,20.55-21.38.11,7.16,1.4,14.02,3.86,20.57,2.6,6.86,6.39,12.92,11.38,18.16,4.99,5.25,11.18,9.42,18.59,12.51,7.39,3.09,15.9,4.64,25.52,4.64,11.84,0,22.93-2.28,33.29-6.86,10.35-4.57,19.23-10.35,26.64-17.35,4.44,7.26,10.72,13.12,18.86,17.56,18.67,10.19,42.87,7.14,62.88,2.53-3.4-4.35-5.42-9.82-5.42-15.77v-18.28c0-13.38,10.25-24.37,23.32-25.55ZM1371.94,263.9c-4.81,10.77-8.7,20.86-11.65,30.27-1.86,2.97-4.81,5.79-8.88,8.48-4.08,2.69-8.32,4.03-12.76,4.03s-7.96-1.27-10.55-3.83c-2.59-2.55-3.88-5.99-3.88-10.29,0-5.92,1.94-12.98,5.83-21.19,3.88-8.21,8.6-16.01,14.15-23.41,5.54-7.4,11.46-13.65,17.75-18.77,6.29-5.1,12.02-7.66,17.2-7.66,2.96,0,5,.94,6.11,2.82,1.11,1.89,1.84,4.04,2.22,6.46-5.55,11.3-10.74,22.33-15.54,33.09Z"/>
  <path class="cls-1" d="M1925.82,245.5c-5.92,7.96-11.75,15.49-17.48,22.62-5.74,7.13-11.47,13.51-17.2,19.12-5.74,5.62-11.47,10.08-17.2,13.37-5.74,3.29-11.57,4.94-17.48,4.94-6.29,0-11.19-1.44-14.7-4.32-3.52-2.88-5.27-6.79-5.27-11.72,0-1.92.83-5,2.5-9.25,1.66-4.25,3.88-9.25,6.66-15.01,2.77-5.76,6.01-11.99,9.71-18.71,3.69-6.72,7.4-13.5,11.1-20.36,8.88-15.9,19.05-33.31,30.52-52.23h-22.2l-39.4,9.87c-2.96-4.66-7.59-8.36-13.87-11.1-6.29-2.74-14.25-4.11-23.86-4.11-18.87,0-37.55,4.59-56.04,13.78-18.5,9.19-35.05,21.05-49.66,35.57-14.62,14.54-26.44,30.71-35.51,48.53-9.06,17.83-13.59,35.37-13.59,52.64,0,7.4,1.11,14.54,3.33,21.39,2.22,6.86,5.64,12.89,10.27,18.1,4.63,5.21,10.35,9.32,17.2,12.34,6.84,3.01,14.89,4.52,24.14,4.52,10.35,0,20.62-2.13,30.79-6.37,10.17-4.25,18.95-9.52,26.36-15.83,4.44,7.13,10.54,12.61,18.31,16.45,7.77,3.84,17.56,5.76,29.41,5.76,15.54,0,30.24-4.11,44.11-12.34,13.87-8.23,26.82-18.44,38.84-30.64,12.02-12.2,23.21-25.29,33.57-39.28,10.35-13.98,19.6-26.73,27.74-38.25l-21.08-9.46ZM1769.63,260.71c-6.48,13.16-11.75,25.5-15.81,37.01-3.7,5.21-9.25,7.81-16.64,7.81-5.19,0-8.7-1.37-10.54-4.11-1.86-2.74-2.78-6.58-2.78-11.52,0-6.03,1.66-13.16,4.99-21.39,3.33-8.22,7.67-16.04,13.04-23.44,5.36-7.4,11.18-13.64,17.48-18.71,6.29-5.07,12.57-7.61,18.87-7.61,5.18,0,8.69,1.92,10.54,5.76-6.29,10.97-12.67,23.03-19.14,36.19Z"/>
  <path class="cls-1" d="M473.22,357.84c0-7.15,3.42-18.01,10.27-32.58l97.52-198.23c6.84-14.57,13.77-25.43,20.79-32.58,7.01-7.15,15.64-16.51,27.62-16.54,20.48,1.83,33.08,14.63,40.04,25.93-5.34-6.84-19.54-16.45-29.52-20.23,1.96,8.66,1.13,20.35,12.95,29.92,11.83,9.56,37.27,7.56,50.82,13.18-10.16-16.37-12.2-30.89-19.98-39.25-2.2-2.37-12.25-10.82-15.41-12.47,20.83.16,36.55-4.29,48.29-12.98,16.68-12.36,26.13-36.58,50.16-62-25.39,6.29-67.91-3.31-91.99,10.1-24.07,13.42-27.47,33.54-34.36,47.81,18.54-4.02,46.69-16.93,58.59-27.29-8.41,7.32-14.67,15.47-24.7,21.73-10.77,6.72-23.69,10.58-37.35,12.14-14.92,1.71-30.31,1.3-45.38,1.68-15.93.39-31.87,1-47.69,2.57-17.53,1.74-34.97,4.71-51.43,9.73-14.97,4.57-28.78,11.22-42.31,17.84-6.12,2.99-12.17,6.07-18.23,9.12-21.18,10.63-41.04,23.08-59.55,37.4-19.34,14.96-37.64,30.57-54.92,46.83-17.28,16.26-33.45,32.26-48.5,48-15.06,15.74-29.43,29.92-43.11,42.53-13.69,12.62-26.61,22.77-38.75,30.44-12.15,7.68-23.7,11.51-34.64,11.51-6.5,0-11.81-1.63-15.91-4.91-4.11-3.27-6.16-7.65-6.16-13.15,0-4.98,1.97-9.36,5.9-13.15,3.93-3.79,7.61-5.96,11.04-6.48l4.11-9.43c-1.37-1.3-3.59-2.88-6.67-4.71-3.08-1.83-6.93-3.6-11.55-5.3-4.62-1.7-9.75-3.14-15.4-4.32-5.65-1.18-11.55-1.77-17.71-1.77-14.37,0-27.64,2.15-39.78,6.46-12.15,4.3-22.67,10.04-31.56,17.21-8.9,7.17-15.91,15.39-21.04,24.64-5.13,9.26-7.7,18.85-7.7,28.75,0,11.48,2.73,21.91,8.21,31.3,5.47,9.39,13.09,17.41,22.84,24.07,9.75,6.65,21.47,11.73,35.16,15.26,13.68,3.52,28.91,5.28,45.68,5.28,24.64,0,47.3-3.65,68.01-10.93,20.7-7.29,39.95-16.98,57.74-29.07,17.79-12.1,34.39-26.01,49.79-41.75,15.4-15.74,30.11-32.19,44.14-49.36h92.39l-25.15,50.73c-6.16,12.49-12.66,21.79-19.5,27.9-6.85,6.12-15.57,9.17-26.18,9.17v8.97h137.55v-8.97c-11.64,0-17.45-3.57-17.45-10.73ZM350.04,257.36c12.32-15.35,24.46-30.5,36.44-45.46,11.97-14.96,24.2-28.74,36.7-41.36,12.49-12.62,25.41-23.74,38.75-33.36,13.34-9.62,27.54-16.78,42.6-21.46l-69.29,141.65h-85.2Z"/>
  <path class="cls-1" d="M1606.78,254.73c6.68-1.55,5.01-19.1,5.43-26.85.41-7.74,14.6-8.77,15.44-19.2.83-10.43,18.35-20.04,18.35-20.04,0,0,12.38-4.08,7.12-9.56-6.3,2.84-13.27,4.41-20.61,4.41-13.14,0-25.13-5.05-34.11-13.32-15.81,2.62-25.41,8.66-25.41,8.66l-50.35,117.37h-12.57c-3.14,0-5.93,1.56-6.95,3.89l-8.91,20.21h-29.72c-8.65,0-15.66,7.01-15.66,15.66v20.6c0,8.65,7.01,15.66,15.66,15.66l58.71,15.83c11.44,3.09,23.49,3.09,34.93,0l58.71-15.83c8.65,0,15.66-7.01,15.66-15.66v-20.6c0-8.65-7.01-15.66-15.66-15.66h-29.72l-8.41-19.07c2.49-6.6,5.23-14.12,7.61-21.2,6.26-18.59,13.77-23.75,20.44-25.3Z"/>
</svg>