<?xml version="1.0" encoding="UTF-8"?>
<svg id="Layer_2" data-name="Layer 2" xmlns="http://www.w3.org/2000/svg" xmlns:xlink="http://www.w3.org/1999/xlink" viewBox="0 0 142.7 32.71">
  <defs>
    <style>
      .cls-1 {
        fill: #a66a43;
      }

      .cls-2 {
        fill: #42260f;
      }
    </style>
    <symbol id="Lettermark_black" viewBox="0 0 926.56 233.14">
      <g>
        <path class="cls-1" d="M0,217.67V0h40.41v180.35h100.42v37.32H0Z"/>
        <path class="cls-1" d="M172.9,217.67v-35.77h35.77V35.77h-35.77V0h111.95v35.77h-35.77v146.13h35.77v35.77h-111.95Z"/>
        <path class="cls-1" d="M328.64,217.67V0h92.64C435.57,0,447.67,2.06,457.51,6.24c9.85,4.13,17.3,10.31,22.41,18.52,5.06,8.2,7.64,18.1,7.64,29.68s-3.23,22.17-9.66,30.47c-6.42,8.3-15.42,13.97-27.05,17.11l-.33-6.24c9.75,2.06,18.24,5.77,25.5,11.02,7.27,5.3,12.89,11.81,16.92,19.6,4.03,7.78,6.05,16.64,6.05,26.58,0,10.55-1.69,19.88-5.11,27.99s-8.44,14.81-15.1,20.21-14.53,9.47-23.63,12.28c-9.14,2.81-19.36,4.22-30.8,4.22h-95.78.05ZM368.11,89.26h49.46c6,0,11.25-1.13,15.71-3.42,4.45-2.3,7.92-5.39,10.41-9.33,2.48-3.94,3.75-8.49,3.75-13.69,0-8.3-2.81-14.77-8.39-19.46-5.58-4.64-13.78-6.99-24.57-6.99h-46.32v52.88h-.05ZM368.11,181.29h54.43c7.69,0,14.16-1.13,19.46-3.42,5.3-2.3,9.33-5.63,12.14-10.13,2.81-4.45,4.22-9.8,4.22-16.03,0-5.81-1.5-10.78-4.5-14.91-3-4.13-7.31-7.31-12.89-9.47s-12.24-3.28-19.92-3.28h-52.84v57.19l-.09.05Z"/>
        <path class="cls-1" d="M534.82,217.67V0h94.51c13.08,0,24.99,3.05,35.77,9.19,10.78,6.09,19.32,14.39,25.64,24.89,6.33,10.45,9.47,22.22,9.47,35.3s-3.14,23.91-9.47,34.36c-6.33,10.45-14.81,18.75-25.5,24.89-10.69,6.09-22.64,9.19-35.91,9.19h-55.04v79.93h-39.47v-.09ZM574.29,102.62h55.37c6,0,11.25-1.41,15.71-4.22,4.45-2.81,7.92-6.7,10.41-11.67,2.48-4.97,3.75-10.45,3.75-16.5,0-6.84-1.55-12.75-4.69-17.72-3.09-4.97-7.45-8.91-13.08-11.81-5.58-2.91-12-4.36-19.27-4.36h-48.19v66.29ZM661.02,217.67l-55.37-98.26,41.68-7.78,61.55,106.33-47.87-.33v.05Z"/>
        <path class="cls-1" d="M719.48,217.67L804.39,0h37.93l84.25,217.67h-41.96l-46.65-123.77c-1.03-2.48-2.44-6.42-4.22-11.81-1.78-5.39-3.7-11.25-5.77-17.58s-3.94-12.24-5.58-17.72-2.91-9.47-3.75-11.95l7.78-.33c-1.27,4.13-2.72,8.81-4.36,13.97-1.64,5.2-3.42,10.55-5.3,16.17s-3.7,10.97-5.44,16.17c-1.78,5.2-3.38,9.85-4.83,13.97l-46.65,122.83h-40.41l.05.05ZM758.02,167.93l14.02-35.11h99.2l14.91,35.11h-128.13Z"/>
        <polygon class="cls-2" points="382.64 218.61 397.18 233.14 397.18 181.29 368.16 181.29 368.16 233.14 382.64 218.61"/>
      </g>
    </symbol>
    <symbol id="Logomark" viewBox="0 0 225.55 288.09">
      <g id="Layer_2-2" data-name="Layer 2-2">
        <g id="Layer_1-2" data-name="Layer 1-2">
          <g id="LIBRA">
            <g>
              <path class="cls-1" d="M217.52,167.29c-5.36-10.29-12.83-18.92-22.43-25.93-.19-.14-.39-.29-.58-.43-7.7-5.5-8.47-16.41-1.78-23.1,1.72-1.72,3.33-3.56,4.84-5.5,8.49-10.97,12.75-24.42,12.75-40.32s-3.37-28.46-10.08-39.3c-6.73-10.84-16.6-19-29.62-24.5C157.58,2.73,141.6,0,122.67,0H15.02C6.73,0,.02,6.71.02,15v18.17c0,8.28,6.71,15,15,15h98.6c14.26,0,25.12,3.1,32.51,9.27,7.41,6.17,11.11,14.74,11.11,25.72,0,6.87-1.64,12.91-4.93,18.11-3.29,5.22-7.89,9.33-13.8,12.34-5.9,3.02-12.83,4.53-20.78,4.53H15.02c-8.28,0-15,6.71-15,15v16.1c0,8.28,6.71,15,15,15h107.23c10.14,0,18.92,1.43,26.33,4.31,7.41,2.88,13.1,7.06,17.09,12.56,3.97,5.5,5.96,12.07,5.96,19.76,0,8.22-1.86,15.31-5.55,21.19-3.72,5.9-9.06,10.35-16.06,13.37s-15.58,4.53-25.72,4.53H15c-8.28,0-15,6.71-15,15v18.17c0,8.28,6.71,15,15,15h111.76c15.09,0,28.68-1.86,40.75-5.55,12.07-3.7,22.5-9.11,31.29-16.25,8.78-7.14,15.44-16.06,19.97-26.76s6.79-23.04,6.79-37.03c0-13.18-2.67-24.9-8.03-35.2h0Z"/>
              <rect class="cls-1" x="16" y="209.77" width="133.06" height="12.46" rx="3.04" ry="3.04"/>
              <rect class="cls-1" x="16" y="183.28" width="133.06" height="12.46" rx="3.04" ry="3.04"/>
              <rect class="cls-1" x="16" y="90.17" width="118.48" height="12.46" rx="3.04" ry="3.04"/>
              <rect class="cls-1" x="16" y="63.68" width="118.48" height="12.46" rx="3.04" ry="3.04"/>
            </g>
          </g>
        </g>
      </g>
    </symbol>
  </defs>
  <g id="Layer_11" data-name="Layer 11">
    <g>
      <use width="926.56" height="233.14" transform="translate(37.87 3.96) scale(.11)" xlink:href="#Lettermark_black"/>
      <use width="225.55" height="288.09" transform="scale(.11)" xlink:href="#Logomark"/>
    </g>
  </g>
</svg>